<svg width="75" height="80" viewBox="0 0 75 80" fill="none" xmlns="http://www.w3.org/2000/svg">
<path d="M71.1815 9.23865H22.4146C20.3058 9.23865 18.5962 10.9482 18.5962 13.0571V76.0611C18.5962 78.1699 20.3058 79.8795 22.4146 79.8795H71.1815C73.2903 79.8795 74.9999 78.1699 74.9999 76.0611V13.0571C74.9999 10.9482 73.2903 9.23865 71.1815 9.23865Z" fill="#506B77"/>
<path opacity="0.55" d="M73.198 18.8485C73.198 17.3722 72.0013 16.1755 70.5251 16.1755H24.7691C23.2929 16.1755 22.0962 17.3722 22.0962 18.8485V73.8337C22.0962 75.31 23.2929 76.5066 24.7691 76.5066H66.3665L73.198 69.6752L73.198 18.8485Z" fill="#293F44"/>
<path d="M72.3494 17.9575C72.3494 16.4813 71.1527 15.2845 69.6765 15.2845H23.9204C22.4443 15.2845 21.2476 16.4813 21.2476 17.9575V72.9428C21.2476 74.419 22.4443 75.6156 23.9204 75.6156H65.5179L72.3494 68.7842L72.3494 17.9575Z" fill="white"/>
<path d="M72.3495 68.7842H68.191C66.7147 68.7842 65.5181 69.9809 65.5181 71.4571V75.6157L72.3495 68.7842Z" fill="#C7C7E5"/>
<path d="M58.8503 38.4893C58.8503 42.8575 56.5254 46.6837 53.0455 48.7973C51.2243 49.9043 49.0859 50.5414 46.7982 50.5414C46.0078 50.5414 45.2356 50.4652 44.4874 50.3202C38.9369 49.2423 34.7461 44.3546 34.7461 38.4893C34.7461 35.8181 35.6152 33.3499 37.0859 31.3522C39.096 28.6205 42.2321 26.767 45.8106 26.477C46.1362 26.4505 46.466 26.4373 46.7982 26.4373C53.4539 26.4373 58.8503 31.8328 58.8503 38.4893Z" fill="#F0F0FF"/>
<path d="M40.302 37.1616C40.302 37.1616 32.4643 26.5597 39.0985 25.1096C45.7328 23.6595 51.1175 31.4569 51.1175 31.4569C51.1175 31.4569 61.3937 34.5658 50.542 42.9618L40.302 37.1616Z" fill="#2D4351"/>
<path d="M53.0459 48.7974C51.2247 49.9043 49.0862 50.5415 46.7986 50.5415C46.0081 50.5415 45.2359 50.4652 44.4878 50.3202L43.7926 47.591L43.211 45.31L43.0718 44.7623L48.0191 41.5335L49.8328 40.3495L50.0614 40.9519L50.4592 41.9975L50.7608 42.7904L53.0459 48.7974L53.0459 48.7974Z" fill="#FDC8AA"/>
<path d="M50.4592 41.9973C47.1846 47.0187 44.9185 47.6865 43.7922 47.5905L43.0718 44.7622L49.8323 40.3489L50.4592 41.9973Z" fill="#EFA37D"/>
<path d="M41.3231 31.9862C41.3231 31.9862 40.7535 35.9133 39.9588 37.3953C39.8447 37.6081 39.8388 37.8621 39.9485 38.0772L40.4805 39.1203C40.4805 39.1203 38.7159 45.4614 42.6653 45.3521C46.6146 45.2428 51.0532 40.6459 51.0912 38.861C51.1293 37.0761 50.7241 36.6865 50.1451 36.5135C49.5661 36.3404 48.9133 37.5967 48.9133 37.5967L48.4576 33.0101C48.4576 33.0101 42.9174 30.9022 41.3231 31.9862L41.3231 31.9862Z" fill="#FDC8AA"/>
<path d="M54.2217 54.6145H39.3752C39.0237 54.6145 38.7388 54.8994 38.7388 55.2509C38.7388 55.6024 39.0237 55.8873 39.3752 55.8873H54.2217C54.5732 55.8873 54.8581 55.6024 54.8581 55.2509C54.8581 54.8994 54.5732 54.6145 54.2217 54.6145Z" fill="#00A3FE"/>
<path d="M62.5052 59.5782H31.091C30.7395 59.5782 30.4546 59.2933 30.4546 58.9418C30.4546 58.5904 30.7395 58.3054 31.091 58.3054H62.5052C62.8567 58.3054 63.1416 58.5904 63.1416 58.9418C63.1416 59.2933 62.8567 59.5782 62.5052 59.5782Z" fill="#F0F0FF"/>
<path d="M58.2139 63.2694H35.3825C35.031 63.2694 34.7461 62.9844 34.7461 62.633C34.7461 62.2815 35.031 61.9966 35.3825 61.9966H58.2139C58.5653 61.9966 58.8503 62.2815 58.8503 62.633C58.8503 62.9845 58.5653 63.2694 58.2139 63.2694Z" fill="#F0F0FF"/>
<path d="M63.895 6.37488H53.1404C53.1404 2.85415 50.2863 0 46.7656 0C43.2448 0 40.3907 2.85415 40.3907 6.37488H29.7018C28.9461 6.37488 28.3335 6.98749 28.3335 7.74314V15.7974C28.3335 16.5531 28.9461 17.1657 29.7018 17.1657H63.895C64.6506 17.1657 65.2632 16.5531 65.2632 15.7974V7.74314C65.2632 6.98745 64.6506 6.37488 63.895 6.37488Z" fill="#DF1242"/>
<path d="M46.7659 9.16229C45.2289 9.16229 43.9785 7.91187 43.9785 6.37492C43.9785 4.83798 45.2289 3.58752 46.7659 3.58752C48.3028 3.58752 49.5532 4.83795 49.5532 6.37492C49.5532 7.9119 48.3028 9.16229 46.7659 9.16229ZM46.7659 4.00738C45.4604 4.00738 44.3984 5.06947 44.3984 6.37492C44.3984 7.68038 45.4604 8.74243 46.7659 8.74243C48.0713 8.74243 49.1334 7.68038 49.1334 6.37492C49.1334 5.06947 48.0713 4.00738 46.7659 4.00738Z" fill="#354D54"/>
<g opacity="0.18" style="mix-blend-mode:multiply">
<path d="M15.0828 66.6425C22.991 66.6425 29.4019 60.2316 29.4019 52.3234C29.4019 44.4151 22.991 38.0043 15.0828 38.0043C7.17455 38.0043 0.763672 44.4151 0.763672 52.3234C0.763672 60.2316 7.17455 66.6425 15.0828 66.6425Z" fill="#1D6AB7"/>
</g>
<path d="M14.3191 64.8605C22.2273 64.8605 28.6382 58.4496 28.6382 50.5414C28.6382 42.6332 22.2273 36.2223 14.3191 36.2223C6.41088 36.2223 0 42.6332 0 50.5414C0 58.4496 6.41088 64.8605 14.3191 64.8605Z" fill="#222DC4"/>
<path d="M11.7152 56.9193C11.2966 56.9193 10.8779 56.7596 10.5585 56.4401L6.28135 52.163C5.64254 51.5242 5.64254 50.4884 6.28135 49.8496C6.92015 49.2108 7.95591 49.2108 8.59468 49.8496L11.7151 52.9701L20.0425 44.6427C20.6813 44.0039 21.7171 44.0039 22.3559 44.6427C22.9947 45.2815 22.9947 46.3172 22.3559 46.956L12.8718 56.4401C12.5524 56.7595 12.1337 56.9193 11.7151 56.9193H11.7152Z" fill="white"/>
</svg>
