<svg width="85" height="85" viewBox="0 0 85 85" fill="none" xmlns="http://www.w3.org/2000/svg">
<path opacity="0.3" d="M48.5765 39.0041C48.5528 38.5728 48.5251 38.1367 48.4934 37.6994C48.1906 33.4702 47.5372 29.0825 46.1567 27.3115L42.9106 23.857C42.9106 23.857 42.7484 22.8895 41.616 22.692L41.6139 22.2184L41.6098 21.4767C43.0221 21.0856 44.1235 19.3483 44.1783 17.2609C44.183 17.0648 44.1789 16.8712 44.1654 16.6818C44.1526 16.5011 44.1317 16.323 44.1033 16.1504C42.3295 15.365 40.3645 14.9283 38.2975 14.9283C37.7258 14.9283 37.1623 14.962 36.6089 15.0271C36.4595 15.5014 36.3419 16.051 36.2777 16.6026C36.0527 18.5287 36.4683 20.4824 38.3941 19.3483C38.5131 19.6688 38.6604 19.9631 38.832 20.2257L38.8266 22.4099C36.8792 22.3998 36.3379 23.771 36.3379 23.771C31.6153 24.8641 27.3421 29.7496 24.6865 33.4703C25.4467 35.8344 26.8137 37.9292 28.6044 39.5738L26.7205 39.7512L30.5924 41.1023H30.593L31.1782 41.3065L31.1532 41.4409V41.4416L30.8769 42.9149L30.145 46.8303C30.9694 47.0406 31.6958 47.1877 32.3397 47.2711L32.1141 48.305L26.1982 75.3839L30.6295 74.966L36.6975 60.4712L37.161 63.8068L36.6914 74.3949L40.8315 74.0046L45.7332 49.8717L46.7866 47.8112L47.2637 46.8767C47.6948 47.0789 48.1787 47.2738 48.7212 47.4504C48.7211 47.4504 48.8292 43.4845 48.5765 39.0041ZM32.8262 32.7588L32.5675 35.8001L30.0267 35.1646L32.8262 32.7588Z" fill="#1561BC"/>
<path d="M25.9227 78.9595L25.2607 81.04L27.5801 81.287L28.5542 78.8536L25.9227 78.9595Z" fill="#FDC8AA"/>
<path d="M22.0303 83.0407C21.4266 83.1844 21.022 83.4041 20.7604 83.601C20.489 83.8052 20.5845 84.2343 20.9175 84.3042C22.6922 84.6771 27.8863 84.4962 28.1443 84.3561C28.4495 84.1904 28.4169 83.0417 28.1019 82.4751C27.7868 81.9085 27.9099 80.8453 27.9099 80.8453L25.244 80.599C25.244 80.599 24.0897 82.5503 22.0303 83.0407Z" fill="#1A3863"/>
<path d="M39.4594 78.0139L39.0181 81.1762L36.7354 81.1157L36.8495 78.2863L39.4594 78.0139Z" fill="#FDC8AA"/>
<path d="M42.2725 83.0407C42.8762 83.1844 43.2808 83.4042 43.5424 83.6011C43.8139 83.8052 43.7183 84.2343 43.3853 84.3043C41.6106 84.6771 36.4166 84.4963 36.1585 84.3562C35.8533 84.1905 35.8859 83.0418 36.201 82.4752C36.516 81.9086 36.3777 80.6466 36.3777 80.6466L39.1963 80.807C39.1963 80.807 40.2131 82.5503 42.2725 83.0407Z" fill="#1A3863"/>
<path d="M46.7443 46.1947L45.9591 47.8111L44.9577 49.8716L39.6723 79.5572H36.4308L36.7349 63.8067L35.7261 57.6547L35.3652 55.4545L39.4284 42.6991H45.3179L46.1605 44.7636L46.7443 46.1947Z" fill="#1A3863"/>
<path opacity="0.75" d="M38.9364 51.0432L36.7349 63.8067L35.7261 57.6547L38.9364 51.0432Z" fill="#122D5B"/>
<path d="M40.5393 43.6981L37.7399 56.5288L28.4265 80.1927L25.2607 79.527L31.2996 48.3049L32.5652 41.7612L36.3931 42.6911L40.5393 43.6981Z" fill="#244272"/>
<path d="M37.3746 22.4097L38.0976 22.4549L37.8008 23.9377L36.1802 24.0966C36.1802 24.0966 36.4196 22.6708 37.3746 22.4097Z" fill="#244272"/>
<path d="M40.1149 22.6842L39.3579 23.0448L39.8804 24.4167L41.3312 24.0964C41.3312 24.0964 41.2017 22.9237 40.1149 22.6842Z" fill="#244272"/>
<path d="M40.5241 23.5745L41.8988 24.7445C41.8988 24.7445 44.3786 36.5715 44.3917 43.9703C44.3917 43.9703 39.885 45.786 34.9087 44.7874C34.9087 44.7874 37.3994 42.5279 35.9841 23.9174L36.8719 23.5896L40.5241 23.5745Z" fill="white"/>
<path d="M40.0426 25.6921C39.9426 25.8055 39.7719 25.8222 39.6518 25.73L36.8721 23.5894L37.374 22.9087L37.3005 19.6422L37.6025 19.8111L40.1145 21.2141L40.145 22.2183L40.1743 23.181L40.5245 23.5746C40.6486 24.7897 40.2863 25.4162 40.0426 25.6921Z" fill="#FDC8AA"/>
<path opacity="0.75" d="M32.5649 41.7612L31.2993 48.3049C34.7212 48.6065 35.5368 46.8826 36.1847 43.0982C36.2077 42.9678 36.2293 42.8354 36.2516 42.7004L36.3928 42.691L32.5649 41.7612Z" fill="#122D5B"/>
<path d="M37.3547 38.0628C37.7413 32.1762 36.6486 24.8566 36.5675 23.8623C36.477 22.7424 37.3743 22.4098 37.3743 22.4098C35.4168 22.3944 34.9087 23.7709 34.9087 23.7709C30.2091 24.8647 26.0555 29.7576 23.4938 33.4796C21.9809 35.6772 22.9283 38.7024 25.427 39.6598L30.1882 41.3064L29.9274 42.9148L29.2935 46.8302C35.004 48.2794 36.044 46.7288 36.8338 42.114C36.8568 41.9836 36.8784 41.8513 36.9007 41.7162L38.9366 41.5798V38.6748L37.3547 38.0628ZM28.8826 35.1645L31.6219 32.7587L31.4394 35.8001L28.8826 35.1645Z" fill="#DF1242"/>
<path d="M40.1454 22.2184C39.6952 22.2687 38.4295 22.23 37.603 20.4272V19.8112L40.115 21.2142L40.1454 22.2184Z" fill="#EFA37D"/>
<path d="M36.9452 19.2927L36.4158 16.9101L34.669 16.6029C34.4893 18.5592 34.9714 20.5439 36.9452 19.2927Z" fill="#244272"/>
<path d="M36.4692 17.255C36.4673 19.6307 37.8342 21.5571 39.5227 21.5593C41.2122 21.5607 42.5827 19.6368 42.5854 17.2612C42.5856 17.0646 42.5764 16.8713 42.5585 16.6821C42.3602 14.5812 41.0812 12.9593 39.532 12.9569C38.3336 12.9562 37.2957 13.9247 36.7924 15.3355C36.5865 15.9127 36.4704 16.5647 36.4692 17.255Z" fill="#FDC8AA"/>
<path d="M36.7925 15.3356L37.2955 17.4136C37.2955 17.4136 37.4644 16.3951 40.1951 16.7701C41.3342 16.9265 42.0778 16.8388 42.5586 16.6821C42.3603 14.5812 41.0813 12.9593 39.5321 12.9569C38.3337 12.9562 37.2959 13.9247 36.7925 15.3356Z" fill="#EFA37D"/>
<path d="M41.2398 10.975C39.0025 11.7183 38.6798 12.8497 38.2377 12.9558C37.7956 13.0619 36.4838 12.5145 35.451 13.9115C35.0796 14.414 34.7698 15.5039 34.6689 16.6028L36.4158 16.91L36.3454 16.5933C36.3454 16.5933 36.8704 18.1562 37.2991 18.0857C37.7277 18.0152 36.5694 15.9189 39.1494 16.0726C41.7296 16.2263 43.0863 16.5562 44.0884 14.6754C45.0904 12.7946 43.4772 10.2318 41.2398 10.975Z" fill="#244272"/>
<path d="M37.0272 17.2426C36.9314 16.9562 36.7241 16.7131 36.439 16.6096C36.2047 16.5244 35.8967 16.5241 35.6017 16.8633C35.0117 17.5418 36.0681 18.941 36.8319 18.5824L37.127 18.13C37.1513 17.7414 37.0961 17.4483 37.0272 17.2426Z" fill="#FDC8AA"/>
<path d="M38.6416 19.6954L40.7926 19.4603C40.7926 19.4603 40.874 20.8702 39.9469 20.9586C39.0198 21.047 38.742 20.3208 38.6416 19.6954Z" fill="white"/>
<path d="M39.8595 28.9516C40.0575 28.9516 40.218 28.7921 40.218 28.5952C40.218 28.3983 40.0575 28.2388 39.8595 28.2388C39.6615 28.2388 39.501 28.3983 39.501 28.5952C39.501 28.7921 39.6615 28.9516 39.8595 28.9516Z" fill="#B6CDFF"/>
<path d="M40.3444 34.9921C40.5423 34.9921 40.7029 34.8325 40.7029 34.6356C40.7029 34.4388 40.5423 34.2792 40.3444 34.2792C40.1464 34.2792 39.9858 34.4388 39.9858 34.6356C39.9858 34.8325 40.1464 34.9921 40.3444 34.9921Z" fill="#B6CDFF"/>
<path d="M36.9006 41.7162C36.8783 41.8513 36.8567 41.9836 36.8337 42.114C34.8944 42.6427 31.6929 42.8422 29.9272 42.9148L30.1881 41.3064C32.6619 42.1624 36.9006 41.7162 36.9006 41.7162Z" fill="#8B0A28"/>
<path d="M46.7444 46.1946L45.9593 47.8111C44.3166 46.9551 43.4956 45.551 43.4956 45.551L43.5983 44.6346L46.1606 44.7636L46.7444 46.1946Z" fill="#122D5B"/>
<path d="M40.1147 22.6842C40.1147 22.6842 40.9861 22.8885 41.0571 23.8266C41.128 24.7647 43.4463 36.8893 43.355 44.6512C43.355 44.6512 44.5775 46.3811 47.8848 47.4503C47.8848 47.4503 47.9204 31.1699 44.8159 27.3116L41.4831 23.8569C41.4831 23.8569 41.2928 22.8632 40.1147 22.6842Z" fill="#DF1242"/>
<path d="M43.7705 39.6832C42.6975 41.1202 41.2852 41.4145 39.4649 41.0766C39.323 41.0497 39.1446 41.0342 38.9365 41.0268V39.0449C39.348 39.0509 39.6021 39.0523 39.6021 39.0523C39.6021 39.0523 42.2502 36.7002 42.0793 37.5359C41.909 38.3724 40.8549 39.1127 41.8408 38.8205C42.8273 38.5276 44.8436 38.2462 43.7705 39.6832Z" fill="#FDC8AA"/>
<path d="M76.0629 64.0567C72.4453 67.9239 66.3374 66.5961 63.3142 62.3475L56.762 53.1384L54.4199 49.8471L60.242 43.6232L63.7132 45.7075L73.4255 51.5383C77.9063 54.2288 79.6804 60.1895 76.0629 64.0567Z" fill="#222DC4"/>
<path d="M60.242 43.6232L54.4199 49.8471L56.762 53.1384C58.1235 52.1281 59.3967 50.9907 60.573 49.7331C61.7494 48.4756 62.7982 47.1308 63.7131 45.7075L60.242 43.6232Z" fill="#0D1587"/>
<path d="M47.9884 2.69452C44.5503 1.45057 40.9449 0.886576 37.273 1.01886C33.6011 1.15115 30.0472 1.97313 26.7077 3.46129C23.2502 5.00311 20.1782 7.19399 17.5771 9.9745C14.9762 12.755 13.0007 15.96 11.7043 19.5001C10.4532 22.9194 9.88588 26.5032 10.019 30.1539C10.152 33.8047 10.9788 37.3392 12.4755 40.6585C14.0258 44.0966 16.2298 47.1504 19.0264 49.7365C21.823 52.3226 25.046 54.2872 28.6071 55.5756C32.0457 56.8201 35.6506 57.3835 39.3226 57.2513C42.9945 57.119 46.5489 56.2975 49.8879 54.8088C53.3459 53.2675 56.4174 51.0761 59.0184 48.2956C61.6194 45.5151 63.5954 42.3106 64.8912 38.7699C66.1429 35.3511 66.7097 31.7669 66.5766 28.1161C66.4435 24.4653 65.6173 20.9313 64.12 17.6115C62.5693 14.1739 60.3658 11.1196 57.5692 8.53352C54.7726 5.94754 51.5491 3.98347 47.9884 2.69452ZM55.6434 45.1747C46.748 54.684 31.7297 55.2251 22.1654 46.3809C12.6012 37.5367 12.0569 22.6047 20.9522 13.0954C29.8476 3.58613 44.8659 3.045 54.4302 11.8892C63.9945 20.7334 64.5388 35.6654 55.6434 45.1747Z" fill="#222DC4"/>
<path d="M77.5 16C77.2239 16 77 15.7026 77 15.3358V0.664253C77 0.297423 77.2239 0 77.5 0C77.7761 0 78 0.297423 78 0.664253V15.3358C78 15.7026 77.7761 16 77.5 16Z" fill="#B6CDFF"/>
<path d="M84.3358 9H69.6642C69.2974 9 69 8.77612 69 8.5C69 8.22388 69.2974 8 69.6642 8H84.3358C84.7026 8 85 8.22388 85 8.5C85 8.77612 84.7026 9 84.3358 9Z" fill="#B6CDFF"/>
<path d="M4.5 59C6.98528 59 9 56.9853 9 54.5C9 52.0147 6.98528 50 4.5 50C2.01472 50 0 52.0147 0 54.5C0 56.9853 2.01472 59 4.5 59Z" fill="#B6CDFF"/>
<path d="M19.881 12.1049C10.421 22.2177 10.9973 38.0409 21.1686 47.4465C31.3399 56.852 47.2552 56.2785 56.715 46.1657C66.1749 36.0529 65.5977 20.2297 55.4264 10.8242C45.2551 1.41867 29.3409 1.99208 19.881 12.1049ZM55.6433 45.1747C46.7479 54.684 31.7297 55.2251 22.1654 46.3809C12.6011 37.5367 12.0568 22.6048 20.9521 13.0954C29.8475 3.58614 44.8658 3.04501 54.4301 11.8892C63.9944 20.7334 64.5387 35.6654 55.6433 45.1747Z" fill="#0D1587"/>
<path d="M62.0973 74.5745H57.6486C56.5823 74.5745 55.7148 73.712 55.7148 72.6519V68.2288C55.7148 67.1686 56.5823 66.3062 57.6486 66.3062H62.0973C63.1636 66.3062 64.031 67.1686 64.031 68.2288V72.6519C64.031 73.712 63.1635 74.5745 62.0973 74.5745ZM57.6485 67.108C57.027 67.108 56.5213 67.6108 56.5213 68.2288V72.6519C56.5213 73.2699 57.027 73.7728 57.6485 73.7728H62.0972C62.7188 73.7728 63.2245 73.2699 63.2245 72.6519V68.2288C63.2245 67.6108 62.7187 67.108 62.0972 67.108H57.6485Z" fill="#1F3A6F"/>
<path d="M67.2145 69.1793H47.5078V84.2389H67.2145V69.1793Z" fill="#8B0A28"/>
<path d="M69.8523 69.1793H49.8936V84.2389H69.8523V69.1793Z" fill="#DF1242"/>
<path d="M69.8522 76.7294H49.8936V77.1303H69.8522V76.7294Z" fill="#1F3A6F"/>
<path d="M61.4518 77.1302H58.2935V79.0345H61.4518V77.1302Z" fill="#1F3A6F"/>
</svg>
