<svg width="147" height="147" viewBox="0 0 147 147" fill="none" xmlns="http://www.w3.org/2000/svg">
<path d="M108.171 112.341C107.841 110.021 107.491 107.701 107.151 105.391C107.611 104.431 107.381 103.521 106.781 102.861C106.511 100.991 106.231 99.1311 105.971 97.2611C103.041 76.3011 100.511 55.2911 97.3611 34.3611C100.541 31.8511 103.041 29.0911 103.731 24.3811C104.161 21.4411 104.031 18.4611 103.911 15.5011C103.801 12.6011 104.251 9.59112 104.061 6.74112C103.661 0.98112 99.1511 0.891098 94.6111 1.0311C85.1411 1.3311 75.621 1.07111 66.151 1.10111C61.041 1.18111 58.3911 2.25111 58.7311 7.79111C59.0111 12.3411 59.531 16.8811 59.811 21.4411C60.021 24.9711 60.311 28.5311 62.371 31.5311C63.151 32.6611 64.1311 33.7911 65.2411 34.8911C59.8011 51.1811 52.671 65.1711 38.841 76.0311C38.141 76.5811 37.801 77.9211 38.121 78.7411C40.041 83.5511 41.3911 90.1011 44.4611 94.2611C45.2711 95.3611 46.261 95.7611 47.601 95.5411C51.561 94.8811 56.0611 92.0011 60.0211 89.3311C59.6511 92.7411 59.2811 96.1411 58.9211 99.5511C58.3611 104.951 57.621 110.381 57.311 115.801C57.111 119.381 57.361 122.141 59.681 124.991C62.441 128.381 66.3811 131.101 69.7111 133.911C73.9011 137.461 78.1411 140.951 82.4211 144.401C83.6011 145.351 85.1911 145.551 86.3611 144.401C90.2411 140.561 94.121 136.711 98.001 132.871C100.861 130.031 104.511 127.181 106.741 123.781C109.061 120.241 108.741 116.361 108.161 112.351L108.171 112.341ZM64.101 121.261C61.701 117.181 63.2811 111.651 63.7311 107.051C63.7711 106.661 63.811 106.261 63.851 105.871C64.051 105.761 64.251 105.641 64.441 105.471C75.581 95.7711 86.611 85.9311 97.541 75.9911C97.921 78.8411 98.301 81.6811 98.681 84.5311C87.151 96.7711 75.631 109.011 64.101 121.251V121.261ZM78.221 43.5411C79.561 44.1111 80.7711 44.3011 81.9211 44.2311C77.6011 47.8811 73.3511 51.6311 69.3911 55.6511C70.0111 50.3311 70.6311 45.0211 71.2411 39.7011C73.6111 41.2811 76.051 42.6211 78.221 43.5411ZM68.311 64.9511C68.421 64.8511 68.541 64.7511 68.651 64.6311C75.831 56.2611 84.481 49.3111 92.931 42.2511C93.421 45.6211 93.901 48.9811 94.371 52.3511C93.991 52.4611 93.6111 52.6511 93.2611 52.9611C84.5511 60.4711 75.831 67.9811 67.121 75.4811C67.521 71.9711 67.921 68.4611 68.321 64.9511H68.311ZM65.161 93.1511C65.511 89.8211 65.891 86.4911 66.251 83.1611C66.651 83.0611 67.051 82.8611 67.431 82.5411C76.691 74.5611 85.9511 66.5811 95.2111 58.6011C95.6911 62.1711 96.171 65.7411 96.651 69.3111C86.101 78.9411 75.431 88.4511 64.681 97.8611C64.841 96.2911 65.001 94.7211 65.161 93.1511ZM66.151 6.65109C71.331 6.63109 76.511 6.65107 81.691 6.63107C84.561 6.62107 87.441 6.61111 90.311 6.60111C91.801 6.60111 95.4211 5.83111 96.8311 6.42111C98.2011 5.96111 98.7311 6.52112 98.4211 8.12112C98.2411 9.12112 98.1611 10.1411 98.1711 11.1611C98.1411 13.0011 98.351 14.8711 98.411 16.7111C98.541 20.8911 98.891 25.0611 95.941 28.2811C92.891 31.6011 87.9011 35.1211 83.9911 37.4211C81.1611 39.0911 80.451 38.5011 77.841 36.9611C75.421 35.5211 73.1311 33.9011 70.9511 32.1211C69.1211 30.6211 67.101 29.1211 66.151 26.8511C64.951 24.0011 65.441 20.2711 65.281 17.2511C65.131 14.5011 65.0111 11.5211 64.4211 8.82108C63.7911 5.94108 63.671 6.68109 66.161 6.65109H66.151ZM53.931 86.1711C52.241 87.1211 50.121 88.6411 48.091 89.5211C46.401 86.3611 45.271 82.2211 44.091 78.8511C53.161 71.3711 59.401 62.4811 64.191 52.5011C63.041 62.3511 61.9011 72.2111 60.8011 82.0711C58.5411 83.4811 56.261 84.8611 53.931 86.1711ZM67.871 125.371C78.461 114.131 89.051 102.881 99.631 91.6411C100.151 95.4311 100.671 99.2311 101.211 103.021C101.261 103.341 101.311 103.671 101.361 104.001C93.9311 114.231 85.4311 123.521 75.9511 131.891C75.7111 131.691 75.471 131.491 75.221 131.291C72.971 129.401 70.2511 127.461 67.8611 125.371H67.871ZM101.201 121.821C99.0211 124.991 95.371 127.641 92.621 130.361C89.821 133.141 87.0111 135.911 84.2111 138.691C82.9011 137.621 81.581 136.561 80.281 135.481C88.511 128.161 95.971 120.131 102.691 111.451C103.191 115.211 103.171 118.961 101.201 121.821Z" fill="black"/>
</svg>
