<svg width="147" height="147" viewBox="0 0 147 147" fill="none" xmlns="http://www.w3.org/2000/svg">
<path d="M135.404 46.6493C134.864 42.5293 133.584 39.5293 129.084 38.8293C125.704 38.2993 121.824 38.9993 118.414 39.1293C116.774 39.1893 115.134 39.2493 113.504 39.3193C113.164 35.8593 112.834 32.3993 112.464 28.9393C112.224 26.6993 112.254 23.9093 110.394 22.2593C108.604 20.6793 106.094 21.0093 103.904 21.0693C99.2744 21.1893 94.6444 21.4193 90.0244 21.5993C72.6844 22.2593 55.1144 22.1793 37.8544 24.0393C36.3744 24.1993 35.0444 25.1893 35.0744 26.8193C35.1644 31.9693 35.2544 37.1193 35.3344 42.2693C35.0744 42.2693 34.8145 42.2893 34.5545 42.2993C30.8745 42.4393 27.1944 42.5793 23.5144 42.7193C20.4044 42.8393 16.4044 42.2993 13.4844 43.5193C8.95445 45.4093 9.63444 50.4793 9.63444 54.5693C9.61444 62.7293 9.54444 70.8893 9.47444 79.0493C9.40444 87.2093 9.32446 95.3693 9.27446 103.529C9.25446 107.239 9.24446 110.949 9.24446 114.659C9.24446 117.199 8.39445 121.459 9.86445 123.699C12.1345 127.149 19.7444 126.039 23.2944 126.119C30.8044 126.289 38.3244 126.409 45.8244 126.509C72.7144 126.839 99.3744 124.669 126.034 121.359C128.484 121.059 133.484 121.249 135.404 119.329C136.954 117.779 136.504 115.009 136.634 112.989C136.904 108.709 137.114 104.429 137.244 100.149C137.814 82.2993 137.154 64.4393 135.404 46.6593V46.6493ZM40.6845 29.3293C53.5145 28.1193 66.4844 28.0593 79.3444 27.5693C86.1044 27.3093 92.8745 27.0493 99.6345 26.7893C101.184 26.7293 103.574 26.0993 104.974 26.5893C106.954 27.2793 106.764 28.6193 107.104 30.9493C107.514 33.7793 107.714 36.6693 107.974 39.5193C107.044 39.5593 106.114 39.5893 105.184 39.6293C89.7345 40.2093 74.2844 40.7993 58.8344 41.3793C52.8544 41.6093 46.8844 41.8293 40.9044 42.0593C40.8344 37.8193 40.7545 33.5693 40.6845 29.3293ZM15.2044 51.2293C16.2644 47.3293 21.0945 48.3693 24.6245 48.2393C28.6745 48.0893 32.7144 47.9293 36.7644 47.7793C51.8444 47.2093 66.9245 46.6393 82.0045 46.0693C89.7245 45.7793 97.4545 45.4893 105.174 45.1893C108.744 45.0493 129.274 42.4093 129.834 46.6493C130.254 50.9493 130.614 55.2493 130.904 59.5593C128.344 62.3693 126.644 65.5893 124.674 68.8193C121.264 74.4193 117.334 75.9093 110.954 76.4093C105.114 76.8693 99.2544 77.1893 93.3944 77.4593C93.2944 76.1793 93.2045 74.8993 93.1345 73.6093C92.9345 70.0493 87.3645 70.0193 87.5645 73.6093C87.6445 74.9793 87.7344 76.3393 87.8444 77.7093C84.6544 77.8493 81.4644 77.9893 78.2744 78.1293C70.8244 78.4693 63.3644 78.7793 55.9144 79.0793C55.8944 77.5293 55.8645 75.9793 55.8745 74.4293C55.8945 70.8493 50.3245 70.8393 50.3045 74.4293C50.2945 76.0493 50.3244 77.6793 50.3444 79.2993C48.7544 79.3593 47.1744 79.4293 45.5844 79.4893C40.6444 79.6793 32.9744 81.4093 28.4044 79.0093C23.7344 76.5493 19.6245 71.2493 15.7745 67.6793C15.5645 67.4793 15.3345 67.3393 15.1145 67.2193C15.1145 65.9693 15.1345 64.7193 15.1445 63.4693C15.1645 59.8293 14.2344 54.7193 15.1844 51.2293H15.2044ZM131.884 114.899C131.304 115.179 130.154 115.209 129.554 115.309C125.594 115.929 121.584 116.279 117.614 116.769C100.054 118.929 82.4544 120.369 64.7644 120.809C56.3844 121.019 47.9945 121.019 39.6145 120.809C35.5345 120.709 31.4645 120.619 27.3745 120.579C23.6345 120.549 18.6144 121.049 14.6944 120.109C14.2244 116.599 14.8144 112.459 14.8244 109.069C14.8344 105.359 14.8544 101.649 14.8844 97.9393C14.9344 90.1893 15.0145 82.4493 15.0845 74.7093C18.0345 77.6093 21.0145 80.5993 24.3145 82.9193C28.5045 85.8693 33.0644 85.5093 37.9844 85.3293C42.1644 85.1793 46.3444 85.0093 50.5244 84.8493C50.5644 85.8293 50.5845 86.7993 50.6345 87.7793C50.8145 91.3493 56.3844 91.3693 56.2044 87.7793C56.1544 86.7293 56.1244 85.6793 56.0844 84.6293C63.4944 84.3393 70.8944 84.0293 78.2944 83.6893C81.6444 83.5393 85.0244 83.4393 88.4144 83.3393C88.5844 84.8793 88.7745 86.4093 88.9845 87.9393C89.4745 91.4693 94.8344 89.9693 94.3544 86.4593C94.2044 85.3593 94.0645 84.2593 93.9445 83.1593C101.114 82.9193 108.284 82.5593 115.274 81.5693C124.514 80.2593 127.164 74.1493 131.394 67.9293C131.914 78.6493 132.024 89.3793 131.684 100.119C131.554 104.259 130.654 108.839 131.074 112.959C130.264 114.789 130.464 115.449 131.664 114.929C132.554 114.719 132.634 114.709 131.894 114.889L131.884 114.899Z" fill="black"/>
<path d="M67.2445 62.1593C69.7645 62.2893 72.2545 62.1993 74.7545 61.8893C76.2445 61.6993 77.5345 60.7393 77.5345 59.1093C77.5345 57.7493 76.2545 56.1393 74.7545 56.3293C72.2545 56.6393 69.7545 56.7293 67.2445 56.5993C63.6645 56.4093 63.6745 61.9793 67.2445 62.1693V62.1593Z" fill="black"/>
</svg>
