<svg width="147" height="147" viewBox="0 0 147 147" fill="none" xmlns="http://www.w3.org/2000/svg">
<path d="M44.074 80.3436C44.074 80.0936 44.034 79.8636 43.974 79.6436C43.364 76.3536 40.854 76.0436 37.554 76.2236C33.944 76.4236 30.344 76.7436 26.744 77.0036C24.584 77.1636 20.634 76.5836 18.854 77.8536C16.254 79.7136 17.134 85.4936 17.044 88.2036C16.634 100.524 16.704 112.894 16.004 125.204C15.914 126.774 17.354 127.894 18.784 127.984C22.674 128.244 26.604 128.164 30.494 128.134C33.894 128.114 39.054 128.824 42.274 127.454C43.784 126.814 44.204 126.134 44.614 124.564C45.774 120.174 44.934 114.354 44.884 109.864C44.774 100.014 44.254 90.1736 44.084 80.3336L44.074 80.3436ZM38.514 80.3436C38.554 82.6636 38.614 84.9736 38.684 87.2936C37.284 85.5536 35.894 83.8136 34.494 82.0736C36.894 81.6936 38.594 81.1436 38.514 80.3436ZM27.934 82.7136C27.984 82.7836 28.014 82.8536 28.064 82.9136C31.114 86.7236 34.174 90.5236 37.224 94.3336C37.734 94.9736 38.334 95.2436 38.924 95.2736C39.024 98.3836 39.134 101.494 39.204 104.604C39.214 105.154 39.224 105.704 39.234 106.244C34.264 99.7836 27.644 94.6936 23.384 87.6736C23.174 87.3336 22.924 87.0636 22.654 86.8636C22.694 85.6436 22.734 84.4136 22.794 83.1936C22.794 83.1136 22.804 83.0336 22.814 82.9536C24.224 82.9036 26.034 82.8336 27.924 82.7236L27.934 82.7136ZM21.684 122.544C21.794 120.004 21.884 117.464 21.944 114.914C24.064 117.514 26.314 119.984 28.614 122.434C26.304 122.514 23.994 122.584 21.684 122.544ZM35.864 122.234C35.744 121.974 35.584 121.724 35.354 121.474C30.814 116.644 26.144 111.914 22.504 106.344C22.394 106.174 22.264 106.024 22.134 105.884C22.154 104.664 22.184 103.444 22.214 102.214C22.274 100.044 22.344 97.8736 22.394 95.6936C27.144 101.354 32.944 106.124 36.824 112.484C37.444 113.504 38.394 113.864 39.314 113.784C39.314 114.584 39.314 115.384 39.314 116.184C39.284 118.214 39.234 120.244 39.154 122.264C38.054 122.224 36.964 122.214 35.864 122.214V122.234ZM39.464 122.294C39.384 122.294 39.314 122.294 39.234 122.294C39.654 121.874 41.324 122.384 39.464 122.294Z" fill="black"/>
<path d="M86.704 68.6136C86.704 66.0436 86.704 63.4635 86.764 60.8935C86.784 60.1335 86.984 59.0936 86.844 58.3336C86.814 58.1336 86.7939 57.9736 86.8039 57.8336C86.6239 58.1036 86.294 58.4735 85.714 58.9235C87.704 57.3935 87.3639 53.6335 84.3039 53.7335C75.6039 54.0335 66.944 53.7936 58.284 53.0036C57.004 52.8836 56.194 53.5335 55.834 54.4135C55.624 54.7935 55.4839 55.2435 55.4939 55.7835C55.6239 66.4235 55.7739 77.0635 55.8039 87.7035C55.8339 97.8335 55.0339 107.964 55.3139 118.094C55.4239 122.234 55.254 127.634 60.474 128.144C63.664 128.454 67.2739 127.674 70.4839 127.504C75.4439 127.244 80.404 127.104 85.334 126.434C86.524 126.274 87.3739 124.854 87.3739 123.754C87.3739 112.374 87.0239 100.984 86.8739 89.6035C86.7839 82.6035 86.6939 75.6035 86.6939 68.6035L86.704 68.6136ZM74.4939 121.304C69.8939 116.204 65.414 111.004 61.024 105.714C61.054 104.774 61.074 103.824 61.104 102.884C61.244 98.6135 61.314 94.3335 61.344 90.0635C67.644 98.7635 74.4439 107.064 81.7539 114.954C81.7839 117.074 81.784 119.184 81.794 121.294C79.474 121.524 77.1439 121.644 74.8139 121.744C74.7239 121.594 74.6239 121.444 74.4939 121.304ZM69.8139 59.2835C73.0539 63.5635 77.104 67.0736 80.334 71.3636C80.574 71.6736 80.8439 71.9135 81.1339 72.0935C81.1539 76.2235 81.1939 80.3635 81.2439 84.4935C74.4639 76.9735 68.2839 68.9735 62.7439 60.4535C62.3039 59.7835 61.724 59.4135 61.104 59.2635C61.104 59.1035 61.104 58.9435 61.104 58.7935C64.004 59.0135 66.9039 59.1835 69.8139 59.2935V59.2835ZM61.354 80.4135C61.334 76.3235 61.2839 72.2336 61.2339 68.1435C67.2839 76.8835 74.0039 85.1235 81.3739 92.8035C81.4539 97.3635 81.5439 101.934 81.6239 106.494C74.3139 98.2335 67.554 89.5435 61.354 80.4035V80.4135ZM81.044 59.3636C81.004 60.9836 81.144 62.6235 81.144 63.8735C79.774 62.3935 78.384 60.9335 77.044 59.4135C78.374 59.4135 79.714 59.3836 81.044 59.3636ZM62.1839 122.474C60.0239 121.844 60.864 117.144 60.854 114.844C60.854 114.604 60.854 114.364 60.854 114.124C63.194 116.884 65.574 119.624 67.974 122.334C65.884 122.634 63.6439 122.904 62.1739 122.484L62.1839 122.474Z" fill="black"/>
<path d="M86.804 57.8436C87.214 57.2236 86.814 57.1336 86.804 57.8436Z" fill="black"/>
<path d="M131.354 21.7935C131.274 20.2835 130.144 19.0235 128.574 19.0135C119.344 18.9235 110.134 19.2835 100.934 20.0935C99.454 20.2235 98.1241 21.2635 98.1541 22.8735C98.6041 54.4935 97.944 86.0135 97.484 117.623C97.434 120.793 95.8941 126.533 99.7241 127.953C101.874 128.743 105.154 128.143 107.364 128.093C113.834 127.943 120.304 127.663 126.764 127.343C127.154 127.323 127.494 127.233 127.794 127.093C128.794 126.773 129.594 125.933 129.544 124.553C128.424 90.2735 133.094 56.0735 131.354 21.7935ZM114.674 120.843C110.604 117.483 106.894 113.773 103.534 109.703C103.434 109.583 103.334 109.494 103.224 109.394C103.234 108.904 103.244 108.403 103.264 107.913C103.334 105.573 103.384 103.243 103.434 100.903C109.744 107.763 115.874 114.804 121.804 122.004C119.724 122.094 117.654 122.183 115.574 122.263C115.474 121.773 115.194 121.283 114.674 120.853V120.843ZM111.234 24.9635C115.894 31.2735 120.564 37.5835 125.224 43.9035C125.484 44.2635 125.794 44.5235 126.124 44.7235C126.074 48.1735 125.994 51.6135 125.874 55.0535C123.264 50.6135 120.254 46.4235 117.104 42.3035C114.834 39.3435 112.514 36.4335 110.304 33.4335C109.384 32.1835 108.474 30.9335 107.594 29.6535C107.024 28.8335 105.144 25.9035 105.104 26.0835C105.164 25.8235 105.174 25.5735 105.174 25.3435C107.194 25.1935 109.224 25.0735 111.244 24.9635H111.234ZM117.924 24.6935C120.584 24.6235 123.244 24.5835 125.904 24.5835C126.054 28.3435 126.144 32.1035 126.174 35.8535C123.424 32.1335 120.674 28.4135 117.924 24.6935ZM123.834 85.9235C124.024 86.2435 124.244 86.4835 124.494 86.6835C124.334 90.3535 124.194 94.0335 124.074 97.7035C118.084 89.6235 110.434 82.9335 104.354 74.8735C104.204 74.6835 104.044 74.5135 103.874 74.3735C103.914 70.3435 103.934 66.3235 103.944 62.2935C110.774 70.0235 118.524 76.9735 123.834 85.9235ZM109.304 41.2535C114.844 48.4235 120.344 55.5335 124.204 63.7835C124.514 64.4535 124.974 64.8535 125.484 65.0535C125.304 69.2235 125.104 73.3835 124.904 77.5535C118.614 69.1435 110.604 62.1535 104.124 53.8535C104.074 53.7835 104.014 53.7335 103.954 53.6735C103.954 47.3735 103.914 41.0735 103.854 34.7735C105.794 37.2235 107.954 39.4935 109.304 41.2435V41.2535ZM122.784 105.803C123.074 106.303 123.454 106.633 123.854 106.853C123.814 109.823 123.794 112.793 123.814 115.763C117.304 107.943 110.574 100.323 103.604 92.9035C103.664 89.5535 103.724 86.2135 103.774 82.8635C110.314 90.3635 117.734 97.1635 122.784 105.813V105.803ZM101.844 122.543C101.784 122.543 101.724 122.553 101.664 122.563C100.004 122.803 101.534 122.283 101.844 122.543ZM103.334 122.424C103.354 122.064 103.244 121.554 103.014 120.864C103.014 120.144 103.024 119.423 103.034 118.703C103.034 118.313 103.044 117.924 103.054 117.534C104.654 119.244 106.314 120.883 108.044 122.443C106.484 122.413 104.874 122.343 103.334 122.413V122.424Z" fill="black"/>
</svg>
