<svg width="147" height="147" viewBox="0 0 147 147" fill="none" xmlns="http://www.w3.org/2000/svg">
<g clip-path="url(#clip0_135_7035)">
<path d="M147.538 56.4454C146.528 49.0854 134.768 47.2554 128.748 46.2754C117.758 44.4954 106.258 44.3154 95.1085 44.7054C95.0785 40.8654 95.0285 37.0154 94.9385 33.1754C94.9185 32.0654 94.0985 30.6854 92.8985 30.4954C69.0385 26.7354 44.1185 30.9654 20.2885 33.3554C13.6485 34.0254 -0.491535 33.0354 -0.951535 42.2454C-1.26154 48.5254 -0.00153515 55.2754 0.478465 61.5454C1.00846 68.4454 1.53846 75.3454 2.05846 82.2354C2.18846 83.8854 3.24846 84.8154 4.83846 85.0154C12.8085 86.0354 20.7585 85.9454 28.7685 85.5354C29.2485 85.5154 33.4985 85.6754 34.8885 85.3654C34.9185 86.2754 35.0085 87.2154 35.0185 88.0654C35.0585 94.7754 34.7785 101.495 34.8685 108.215C34.8885 109.655 36.1285 111.085 37.6485 110.995C42.0485 110.755 44.8385 107.315 47.8685 104.415C52.5185 99.9854 56.9285 95.3054 61.0485 90.3854C61.3585 90.0154 61.6685 89.5954 61.9885 89.1554C61.6085 94.5954 61.5485 100.855 65.0485 104.095C70.1985 108.855 80.7685 105.125 86.7085 104.365C91.7785 103.715 96.8785 103.255 101.958 102.695C104.858 102.375 107.768 102.055 110.668 101.745C113.308 101.455 116.758 100.465 119.378 100.795C122.898 101.235 125.098 105.515 127.518 108.055C130.998 111.705 134.738 115.065 138.668 118.225C140.098 119.375 142.958 119.295 143.318 116.995C145.258 104.755 146.268 92.4854 146.938 80.1154C147.348 72.5454 148.568 63.9954 147.528 56.4354L147.538 56.4454ZM34.9685 85.3554C35.1585 85.3054 35.2885 85.2454 35.3285 85.1754C35.1385 85.5154 35.0285 85.5154 34.9685 85.3554ZM34.9585 83.5754C35.0685 82.6654 35.0085 82.9654 34.9585 83.5754ZM51.7685 92.5454C49.7085 94.7754 47.5785 96.9554 45.4085 99.0854C44.3085 100.155 42.3785 102.545 40.4485 104.075C40.5285 97.5054 40.8685 90.9254 40.5285 84.3754C40.3285 80.5854 39.3385 79.4654 35.3285 79.6154C25.9685 79.9654 16.7685 80.6154 7.44846 79.7254C6.67846 69.6754 5.90846 59.6154 5.13846 49.5654C4.92846 46.8054 3.52846 42.7754 6.31846 40.8854C7.88846 39.8254 12.3885 39.8054 13.9585 39.6054C19.1685 38.9454 24.4085 38.5254 29.6385 38.0054C49.2685 36.0654 69.7185 32.9054 89.4285 35.5954C89.5585 42.5554 89.6285 49.5254 89.5885 56.4854C89.5685 59.3054 90.9185 75.5354 88.1885 76.2954C82.2985 77.7654 76.4885 78.0654 70.4685 78.1654C67.4085 78.2154 64.6985 78.5454 62.2485 80.5354C58.2485 83.7854 55.2985 88.7554 51.7885 92.5554L51.7685 92.5454ZM125.598 97.4754C120.568 92.8454 111.258 96.1154 105.238 96.7754C96.6985 97.7154 88.1485 98.5254 79.6585 99.8654C74.9085 100.615 69.0685 102.575 67.8885 96.6254C67.1185 92.6954 67.7885 87.8654 67.9385 83.8054C69.4485 83.5254 71.1685 83.7454 72.5785 83.7254C78.3485 83.6454 84.0485 83.0554 89.6585 81.6554C89.8785 81.6054 90.0785 81.5254 90.2585 81.4454C93.6285 80.2454 94.7685 77.4854 95.0785 74.3054C95.1885 74.3154 95.2885 74.3454 95.4085 74.3454C102.398 74.5054 109.378 74.6654 116.368 74.8254C119.948 74.9054 119.948 69.3354 116.368 69.2554C109.378 69.0954 102.398 68.9354 95.4085 68.7754C95.3085 68.7754 95.2185 68.7954 95.1185 68.7954C95.0685 67.6054 95.0185 66.4454 95.0385 65.3554C95.1285 60.3354 95.1585 55.3054 95.1485 50.2854C104.578 49.9754 114.138 50.1754 123.508 51.1654C129.178 51.7654 134.268 53.1754 139.548 55.2554C142.648 56.4754 142.168 57.9454 142.148 61.2454C142.028 77.7354 140.978 94.4454 138.648 110.805C134.128 106.495 130.188 101.735 125.588 97.4954L125.598 97.4754Z" fill="black"/>
<path d="M64.0685 63.2157C65.7085 61.3757 67.3585 59.5356 68.9985 57.7056C71.3785 55.0456 67.4585 51.0956 65.0585 53.7656C64.2585 54.6556 63.4685 55.5456 62.6685 56.4356C60.9885 53.2156 58.7885 49.4856 55.8285 49.4956C54.0885 49.4956 53.0885 50.5556 51.8785 51.6556C50.7885 52.6356 45.3685 59.4456 44.1085 59.2656C45.6685 59.4756 41.6285 52.5957 41.1785 52.0857C40.2985 51.0957 39.3585 50.3156 37.9885 50.1756C35.9685 49.9856 34.5185 51.3856 33.3285 52.7456C30.3285 56.1856 31.0385 56.7756 28.4285 52.0756C26.6885 48.9356 21.8785 51.7456 23.6185 54.8856C25.3085 57.9356 27.2485 64.1857 31.9285 62.5257C33.5685 61.9457 34.8885 60.1557 35.7785 58.7157C37.2485 56.3657 36.2185 55.2356 37.9285 57.4156C38.9285 58.6956 39.5085 60.3056 40.4185 61.6456C42.4385 64.6156 44.4685 65.7356 47.6085 63.5456C50.0385 61.8556 51.7785 58.2856 54.3985 56.9856C56.1985 56.0956 55.0985 55.9456 56.5685 57.6656C57.7985 59.1156 58.6885 61.0656 59.6885 62.6656C60.5885 64.1056 62.8285 64.6056 64.0585 63.2256L64.0685 63.2157Z" fill="black"/>
</g>
<defs>
<clipPath id="clip0_135_7035">
<rect width="147" height="147" fill="white"/>
</clipPath>
</defs>
</svg>
