<svg width="147" height="147" viewBox="0 0 147 147" fill="none" xmlns="http://www.w3.org/2000/svg">
<path d="M27.1896 129.624C26.9996 129.954 27.0296 130.114 27.0896 130.134C27.1196 130.004 27.1596 129.874 27.2196 129.754C27.2196 129.714 27.1996 129.674 27.1896 129.634V129.624Z" fill="black"/>
<path d="M120.67 46.7539C120.72 39.1339 120.77 31.4939 120.38 23.8839C120.25 21.3439 120.65 15.6239 118.11 13.6539C117.73 13.3039 117.23 13.0739 116.6 13.0239C116.44 13.0039 116.29 12.9939 116.14 13.0039C97.7997 13.3339 79.4697 13.9639 61.1297 14.0839C57.9197 14.1039 55.5397 13.5539 53.0797 15.6239C49.7397 18.4339 46.7496 21.6739 43.3496 24.4539C39.8596 27.3139 36.2297 30.0039 32.5597 32.6339C30.2497 34.2939 29.0697 34.8239 28.8197 37.6839C28.0997 46.0139 28.6096 54.6639 28.5296 63.0239C28.4596 70.4939 27.6396 77.8839 27.6696 85.3939C27.6996 92.4439 27.6496 99.5039 27.6096 106.554C27.5796 111.794 27.5296 117.024 27.4196 122.264C27.3796 124.084 27.3497 125.914 27.2597 127.734C27.2397 128.194 26.9996 129.134 27.1596 129.564C27.1596 129.594 27.1696 129.614 27.1796 129.634C27.2896 129.444 27.4696 129.204 27.7696 128.894C27.5196 129.154 27.3396 129.454 27.2096 129.754C27.2496 130.014 27.1497 130.154 27.0797 130.134C26.6797 131.774 27.8196 133.644 29.7396 133.644C43.3396 133.644 56.9396 133.204 70.5296 133.054C83.5496 132.904 96.6696 134.044 109.67 133.234C115.71 132.864 119.39 133.234 120.09 127.034C120.68 121.874 120.63 116.614 120.68 111.434C120.91 89.8839 120.5 68.3239 120.65 46.7739L120.67 46.7539ZM114.04 17.4339C114.13 17.5639 114.23 17.684 114.35 17.794C114.35 17.854 114.33 17.9139 114.31 17.9939C113.82 17.7039 113.88 17.4739 114.04 17.4339ZM48.8596 27.0839C50.2196 25.9339 51.6896 24.264 53.2196 22.794C53.1796 24.094 53.1697 25.404 53.1197 26.734C53.0597 28.664 52.9197 30.5939 52.6997 32.5039C52.6497 32.9339 52.1597 38.7539 51.4997 39.3739C50.6797 40.1539 45.0697 37.4639 43.6297 37.0139C41.7297 36.4239 39.7996 35.9539 37.8596 35.5639C41.5896 32.8239 45.3096 30.0839 48.8496 27.0939L48.8596 27.0839ZM114.95 120.104C114.88 122.044 114.84 123.994 114.64 125.924C114.28 129.334 114.01 127.794 110.69 127.594C103.94 127.184 96.9496 127.844 90.1596 127.644C83.9696 127.464 77.7996 127.404 71.6096 127.464C58.7896 127.594 45.9796 127.974 33.1596 128.044C33.3096 125.404 32.9797 122.484 33.0097 120.844C33.1497 112.944 33.1896 105.034 33.2096 97.1339C33.2696 78.2539 34.3097 59.4639 34.3697 40.5839C38.4097 41.2939 42.3396 42.3539 46.2096 43.8139C48.5696 44.7039 52.3596 46.734 54.8396 45.044C57.4796 43.244 57.5096 37.9539 57.9196 35.1539C58.6796 30.0039 58.1297 24.594 59.0097 19.484C62.0297 19.034 65.9296 19.6039 68.6596 19.5739C83.8596 19.3739 99.0597 18.8939 114.26 18.6139C114.32 19.2239 114.54 20.0739 114.57 20.4039C114.8 22.7839 114.87 25.1839 114.94 27.5639C115.14 33.9539 115.13 40.3539 115.09 46.7539C115.04 54.3539 114.73 61.9639 114.82 69.5639C114.95 80.5639 115.15 91.5639 115.16 102.564C115.16 108.404 115.15 114.254 114.95 120.104Z" fill="black"/>
<path d="M53.5396 73.2337C56.2896 72.3637 57.1296 69.3337 58.3096 66.9537C59.7996 63.9337 61.2496 60.8937 62.6596 57.8437C64.1496 54.6137 59.3596 51.7837 57.8496 55.0337C56.2596 58.4737 54.7696 62.3737 52.8796 65.8437C52.7396 65.5937 52.5996 65.3537 52.4596 65.1237C50.5496 62.1037 45.7296 64.8937 47.6496 67.9337C48.6296 69.4837 49.4896 71.2437 50.8296 72.5237C51.5296 73.1937 52.5896 73.5437 53.5396 73.2437V73.2337Z" fill="black"/>
<path d="M71.8596 68.6541C80.0196 68.3941 88.1696 67.8941 96.3096 67.1741C99.8496 66.8541 99.8796 61.2841 96.3096 61.6041C88.1696 62.3241 80.0296 62.8241 71.8596 63.0841C68.2896 63.2041 68.2696 68.7641 71.8596 68.6541Z" fill="black"/>
<path d="M51.8396 93.704C53.3096 94.494 54.9897 93.9139 55.9397 92.6139C56.8297 91.3839 57.4096 89.774 58.0996 88.414C58.9696 86.674 59.8396 84.934 60.7096 83.194C62.3096 79.994 57.4996 77.174 55.8996 80.384C54.9096 82.364 54.0096 84.574 52.9696 86.654C52.8196 86.454 52.6696 86.2539 52.5296 86.0639C51.5796 84.8839 49.5796 85.0939 48.5896 86.0639C47.4196 87.2139 47.6596 88.834 48.5896 90.004C49.5296 91.174 50.4996 92.984 51.8496 93.714L51.8396 93.704Z" fill="black"/>
<path d="M95.1695 91.424C98.7195 91.844 98.6895 86.274 95.1695 85.854C87.5495 84.954 79.9095 84.594 72.2395 84.764C68.6595 84.844 68.6495 90.414 72.2395 90.334C79.9195 90.164 87.5495 90.524 95.1695 91.424Z" fill="black"/>
<path d="M59.8097 100.574C58.6597 102.444 57.5097 104.324 56.3597 106.194C55.8197 107.064 55.2897 107.944 54.7497 108.814C54.6997 108.894 54.6496 108.974 54.5996 109.054C54.3596 108.614 54.1496 108.164 53.9596 107.774C52.3896 104.554 47.5796 107.374 49.1496 110.584C50.5496 113.444 54.0397 118.334 57.4397 114.854C58.8897 113.364 59.8497 111.134 60.9297 109.374C62.1597 107.374 63.3797 105.374 64.6097 103.374C66.4897 100.314 61.6697 97.5138 59.7997 100.564L59.8097 100.574Z" fill="black"/>
<path d="M96.6796 106.214C88.9596 107.424 81.2896 104.924 73.5296 106.354C70.0096 107.004 71.4996 112.364 75.0096 111.724C82.6896 110.314 90.4196 112.804 98.1596 111.584C101.69 111.034 100.19 105.664 96.6796 106.214Z" fill="black"/>
</svg>
