<svg width="147" height="147" viewBox="0 0 147 147" fill="none" xmlns="http://www.w3.org/2000/svg">
<path d="M99.1058 107.465C102.476 101.095 105.526 92.4149 103.826 85.2149C102.126 78.0049 95.7158 73.7549 89.3758 70.8649C89.2458 70.8049 89.1158 70.7749 88.9858 70.7349C88.8958 70.6849 88.8158 70.6349 88.7158 70.5849C84.6858 68.8949 79.6458 67.2849 74.7258 65.3049C72.7558 56.2849 70.8158 47.2649 69.0058 38.2149C74.8158 38.5249 80.0057 40.8449 83.9557 45.4949C84.7457 46.4249 86.3258 46.5149 87.3258 45.9349C91.6358 43.4149 95.9458 40.8949 100.256 38.3749C101.046 37.9149 101.726 36.9249 101.636 35.9749C101.376 33.1249 98.0858 30.3849 96.1358 28.5549C91.9958 24.6949 86.6458 22.9549 81.0958 22.2949C76.1258 21.7049 71.2358 22.3949 66.8358 24.1549C66.0358 19.7849 65.2558 15.4049 64.5358 11.0149C63.9558 7.4849 58.5858 8.98491 59.1658 12.4949C59.9558 17.2849 60.8058 22.0749 61.6858 26.8449C57.7058 29.5149 54.4558 33.2549 52.3358 37.8449C40.3658 47.4749 37.1458 68.7949 51.5758 78.0949C57.9858 82.2349 65.8058 82.6449 73.1558 83.9249C75.0658 93.0349 76.8958 102.155 78.5558 111.315C77.3258 111.035 76.1258 110.605 74.9858 110.005C69.7158 107.235 69.0358 102.985 66.5258 98.2649C65.2558 95.8749 63.2958 94.8749 60.5758 95.3249C55.7358 96.1149 50.3258 99.6449 45.8158 101.605C44.7958 102.045 44.1358 103.715 44.5358 104.745C48.8458 115.765 58.5558 123.885 70.5458 124.935C73.8058 125.225 77.3258 124.955 80.7358 124.135C81.2658 127.535 81.7758 130.945 82.2258 134.365C82.6858 137.865 88.2658 137.915 87.7958 134.365C87.2658 130.355 86.6758 126.355 86.0558 122.365C92.5058 119.565 97.8058 114.565 99.1058 107.455V107.465ZM91.4858 108.345C89.3958 110.075 86.8658 111.145 84.2458 111.535C82.6658 102.755 80.9458 94.0049 79.1258 85.2749C82.1858 86.1749 85.1158 87.5049 87.3758 89.8249C91.2058 93.7549 93.5858 100.205 93.6858 105.735C93.0658 106.705 92.3458 107.575 91.4858 108.355V108.345ZM56.9358 41.4349C59.0258 40.2149 61.1558 39.3249 63.4458 38.7349C65.0258 46.6449 66.7058 54.5449 68.4158 62.4249C60.2058 58.1249 54.1358 51.9749 56.9358 41.4349ZM80.2758 27.7549C84.5958 28.2149 88.9357 29.5649 92.2057 32.4949C92.9157 33.1249 93.5557 33.8749 94.2057 34.5749C94.3357 34.7149 94.5058 34.9349 94.6858 35.1949C91.9458 36.8049 89.1957 38.4049 86.4557 40.0049C80.9657 34.5649 73.3958 32.1049 65.6358 32.6749C65.4558 32.6849 65.2958 32.7249 65.1358 32.7649C65.0558 32.7649 64.9858 32.7649 64.8958 32.7749C64.0058 32.9049 63.1458 33.0849 62.2958 33.2849C67.0658 29.0449 73.7958 27.0649 80.2858 27.7549H80.2758ZM50.4058 69.2949C46.1058 62.7349 46.7757 54.1449 50.7657 47.7049C51.1957 53.6849 54.0858 59.1249 59.2558 63.2649C62.7358 66.0549 66.6558 68.0649 70.7358 69.7549C70.9758 69.9049 71.2458 70.0149 71.5258 70.0749C76.5558 72.1049 81.7957 73.7149 86.7657 75.7549C91.6057 77.9649 97.2557 81.0149 98.4557 86.6849C99.0957 89.6749 98.6058 93.1749 97.6158 96.5449C96.2458 92.5049 94.0758 88.6949 91.2958 85.8749C87.6258 82.1449 82.8158 80.3349 77.8358 79.2049C77.5658 77.9049 77.2957 76.6149 77.0157 75.3149C76.2657 71.8149 70.8958 73.2949 71.6458 76.7949C71.7358 77.2349 71.8358 77.6749 71.9258 78.1249C64.3458 76.9749 54.9858 76.2849 50.4058 69.2849V69.2949ZM70.5458 119.375C61.9958 118.465 54.6558 112.985 50.8658 105.425C53.1158 104.405 55.3758 103.345 57.6858 102.495C58.6358 102.145 60.7158 100.945 61.7558 101.515C62.1358 101.725 62.8158 104.505 62.9558 104.815C64.7258 108.755 67.7258 112.215 71.4558 114.435C74.5358 116.265 77.9258 117.165 81.3158 117.235C81.4758 117.255 81.6458 117.255 81.8158 117.235C82.6658 117.235 83.5058 117.175 84.3558 117.075C80.0458 119.085 74.9658 119.835 70.5558 119.365L70.5458 119.375Z" fill="black"/>
</svg>
