<svg width="147" height="147" viewBox="0 0 147 147" fill="none" xmlns="http://www.w3.org/2000/svg">
<path d="M122.933 44.8374C120.393 31.3074 112.563 18.2574 100.763 10.8574C86.8828 2.16743 69.8228 3.94743 55.6928 10.9674C35.0828 21.9874 19.5528 44.1974 23.6628 68.3074C25.9228 81.5474 34.0928 92.6274 44.3628 100.927C48.5428 104.307 55.2728 106.157 58.6128 110.307C59.0628 110.867 59.4228 111.477 59.7128 112.127C59.7628 112.377 59.8528 112.607 59.9728 112.817C61.6228 117.467 60.2428 123.937 60.5528 128.437C60.8228 132.327 61.5828 136.617 64.9328 139.037C69.7128 142.487 78.3228 141.697 83.7628 140.727C100.383 137.767 87.0128 118.597 95.3728 109.037C99.6528 104.147 105.533 100.977 109.753 95.8874C113.723 91.0974 116.903 85.7674 119.263 80.0074C123.803 68.9274 125.153 56.6174 122.933 44.8474V44.8374ZM71.6728 84.8774C73.9228 83.9274 76.0828 82.6274 78.0128 81.1774C79.4028 82.1274 80.9428 82.8874 82.5628 83.4274C80.7728 90.7474 81.0128 98.2874 82.8928 105.467C77.4528 106.737 71.9828 107.297 66.4028 107.177C67.4328 102.907 68.3928 98.6074 69.4728 94.3474C70.2428 91.2974 71.2828 88.0974 71.6728 84.8774ZM78.3328 73.6174C77.0528 71.6674 76.9328 69.5874 77.9628 67.3774C81.5628 66.9174 82.7528 67.4774 81.5328 69.0574C81.2128 70.6474 79.9728 72.2774 78.4228 73.7574C78.3928 73.7074 78.3528 73.6674 78.3228 73.6074L78.3328 73.6174ZM66.0828 119.397C73.1028 119.717 79.9828 118.877 86.7028 116.877C86.6828 117.317 86.6728 117.767 86.6728 118.207C80.0228 120.797 73.2128 121.967 66.0428 121.657C66.0728 121.067 66.0928 120.507 66.0928 120.017C66.0928 119.807 66.0928 119.607 66.0828 119.397ZM84.9428 111.597C78.6128 113.437 72.1928 114.157 65.5728 113.807C65.4928 113.427 65.4128 113.057 65.3228 112.697C71.8528 112.937 78.2828 112.297 84.6228 110.777C84.7328 111.047 84.8328 111.327 84.9428 111.597ZM65.9828 129.537C65.8828 128.787 65.8428 128.007 65.8228 127.217H65.8428C73.1128 127.557 80.1728 126.497 86.9628 124.027C87.0028 124.577 87.0528 125.137 87.0828 125.687C81.0928 129.157 72.7828 129.487 65.9728 129.537H65.9828ZM77.3428 135.777C74.9428 135.827 71.7228 136.047 69.3928 135.037C75.2428 134.857 81.6128 134.207 86.9528 131.977C85.7728 135.647 80.9528 135.697 77.3428 135.777ZM95.2928 101.677C92.9428 103.557 90.9328 105.537 89.4328 107.867C89.3328 107.597 89.2328 107.317 89.1328 107.047C89.0828 106.727 88.9828 106.417 88.8428 106.127C86.6328 99.1274 86.1328 91.4974 88.0328 84.4074C88.7528 84.4274 89.4628 84.4274 90.1728 84.3574C94.8228 83.9274 104.513 79.1974 99.6228 73.1674C97.2328 70.2074 92.5528 70.6174 89.5628 72.2974C87.1528 73.6574 85.5028 75.8074 84.3428 78.2374C83.6328 78.0074 82.9428 77.7074 82.2828 77.3474C82.3828 77.2374 82.4828 77.1374 82.5828 77.0374C86.4228 72.7574 92.7128 62.6774 83.6528 60.0274C76.9328 58.0674 71.1428 64.7874 71.7528 71.0974C71.9728 73.3974 72.7828 75.4474 73.9928 77.2174C73.1128 77.7874 72.2828 78.2674 71.5928 78.6374C71.5128 78.6774 71.4228 78.7174 71.3428 78.7574C69.6628 72.4974 62.6728 67.7174 56.7228 72.1974C50.7428 76.7074 55.1328 84.9374 61.3528 86.2674C62.8428 86.5874 64.3728 86.6274 65.9128 86.4574C65.3328 89.1574 64.3528 91.8474 63.8328 93.9374C62.8828 97.7874 62.0028 101.647 61.0828 105.497C59.6628 104.137 57.9028 102.867 55.7128 101.627C45.2128 95.6974 36.1028 87.0874 31.5128 75.7074C21.8128 51.6274 37.3128 27.1174 58.4928 15.7874C70.8828 9.63743 85.7828 8.08743 97.9428 15.6774C108.113 22.0274 114.733 33.2574 117.243 44.7974C122.073 66.9674 112.443 87.9374 95.2828 101.687L95.2928 101.677ZM90.7428 78.1874C91.8628 76.5074 92.5028 76.4774 92.6228 78.1574C92.0528 78.0374 91.4128 78.0874 90.7428 78.1874ZM66.2028 80.6474C64.1028 81.2674 62.1228 80.9274 60.2628 79.6274C60.1928 75.2174 61.8428 74.7674 65.2228 78.2474C65.7128 78.9674 66.0228 79.7774 66.2028 80.6474Z" fill="black"/>
<path d="M50.0128 25.2276C39.1528 37.5076 27.1328 52.9876 33.8928 70.2876C35.1828 73.5876 40.5728 72.1476 39.2628 68.8076C33.2628 53.4576 44.3728 39.9976 53.9528 29.1676C56.3228 26.4876 52.3928 22.5376 50.0128 25.2276Z" fill="black"/>
<path d="M45.0928 78.5873C45.0928 78.5873 44.8328 78.2973 44.6828 78.1273C44.6628 78.0973 44.6228 78.0473 44.5628 77.9573C44.4628 77.8173 44.3628 77.6773 44.2628 77.5373C43.4328 76.3473 41.7828 75.6773 40.4528 76.5373C39.2728 77.2973 38.5628 79.0673 39.4528 80.3473C40.3328 81.6073 41.3128 82.7873 42.4328 83.8373C43.5028 84.8273 45.3228 84.9773 46.3728 83.8373C47.3628 82.7673 47.5128 80.9573 46.3728 79.8973C45.9228 79.4773 45.4928 79.0473 45.0828 78.5873H45.0928Z" fill="black"/>
</svg>
