<svg width="147" height="147" viewBox="0 0 147 147" fill="none" xmlns="http://www.w3.org/2000/svg">
<path d="M48.6875 36.1815C40.9275 46.0015 39.7575 60.6815 47.2875 71.0115C54.5475 80.9715 71.9075 87.1115 83.4675 82.1615C97.5275 76.1415 105.327 60.2115 102.677 45.4515C96.5875 20.3715 63.6375 17.2715 48.6975 36.1815H48.6875ZM74.7675 78.3315C60.4275 78.2215 46.7275 68.0615 47.8375 52.8815C49.7775 26.3615 90.7575 19.9315 97.3175 46.9315C99.7275 60.3115 89.8675 78.4515 74.7775 78.3315H74.7675Z" fill="black"/>
<path d="M111.307 76.6913C112.027 69.2413 119.707 64.9413 121.147 57.1813C122.177 51.6413 120.527 45.5613 116.027 41.9413C115.507 41.5213 113.947 40.9713 113.717 40.4213C113.407 39.7113 114.427 37.2413 114.497 36.3013C114.727 32.9613 114.097 29.4913 112.607 26.4813C109.887 21.0113 104.547 17.2512 98.5274 16.3412C97.3074 16.1512 95.0374 16.6113 94.0574 15.9113C93.3574 15.4113 92.8574 13.4112 92.2374 12.6512C90.4474 10.4312 87.7774 8.97125 85.0074 8.34125C78.7774 6.94125 73.1174 10.0513 68.4974 13.9813C65.5274 12.3713 60.8674 11.7712 58.6374 11.9012C52.0374 12.2912 48.5474 15.7612 45.3874 20.7112C34.6274 18.1312 28.6974 30.8613 31.6574 40.6013C27.1374 45.8413 24.0874 52.4313 25.2474 59.5312C25.7574 62.6813 27.0074 65.7213 29.0274 68.2213C29.8674 69.2513 30.9874 69.9812 31.8374 70.9612C33.3674 72.7312 32.8274 71.3912 32.5474 74.1412C31.5374 83.9512 38.3074 93.2212 47.0274 94.5912C41.4974 108.591 35.8874 122.551 30.1774 136.481C29.2274 138.791 32.3474 140.801 34.2674 139.621C38.9774 136.741 43.1774 133.351 46.9274 129.401C47.9574 132.111 48.9774 134.811 50.0074 137.521C50.8474 139.731 53.7574 140.331 55.0974 138.191C62.1774 126.841 68.4274 115.051 73.8474 102.821C74.4374 102.811 75.0374 102.761 75.6274 102.681C77.8974 108.561 80.2574 114.401 82.7674 120.171C84.1674 123.411 85.6174 126.631 87.1074 129.831C88.1574 132.101 89.1074 135.251 91.4974 136.531C94.3474 138.061 96.5774 136.561 97.7974 133.941C98.8974 131.571 100.747 127.091 100.827 124.501C100.907 122.091 100.087 122.821 102.347 123.291C104.217 123.681 106.187 124.881 107.937 125.601C109.797 126.371 111.267 124.481 111.457 122.921C112.117 117.461 109.657 112.311 107.897 107.251C105.857 101.391 103.817 95.5413 101.777 89.6813C106.917 87.2213 110.767 82.4712 111.317 76.7012L111.307 76.6913ZM45.9074 122.141C43.7974 124.721 41.5274 127.061 39.0774 129.201C43.8074 117.561 48.4974 105.901 53.1074 94.2112C53.8774 94.0012 54.6574 93.7213 55.4374 93.3713C58.9674 97.3313 63.4074 100.521 68.1274 101.961C63.7074 111.741 58.7474 121.241 53.2474 130.461C52.3474 128.091 51.4474 125.731 50.5574 123.361C49.8974 121.611 47.3574 120.351 45.9074 122.131V122.141ZM105.707 118.381C103.317 117.201 100.657 116.171 98.6674 117.141C95.2874 118.781 94.5074 125.941 93.5274 129.011C93.4374 129.301 93.3374 129.591 93.2474 129.891C92.9474 129.251 92.6474 128.611 92.3474 127.971C90.9974 125.091 89.6874 122.201 88.4074 119.291C85.7574 113.261 83.2774 107.151 80.9074 101.001C82.4074 100.231 83.8774 99.2113 85.3074 97.8813C87.4874 95.8413 88.4774 92.6113 91.4174 91.9213C93.0974 91.5213 94.7574 91.3812 96.3974 91.1512C98.1974 96.3212 100.007 101.501 101.807 106.671C103.097 110.371 105.007 114.371 105.707 118.381ZM101.947 83.0013C98.4274 85.9413 94.7774 85.8513 90.5174 86.3513C88.2674 86.6213 86.7674 86.6813 85.1874 88.4913C83.3274 90.6113 82.6174 93.1912 80.1374 94.9612C72.1974 100.601 63.5874 95.1213 58.5174 88.4713C57.6174 87.2913 56.1174 86.6113 54.7074 87.4713C49.4374 90.7113 42.7074 88.8212 39.7074 83.3912C38.4274 81.0712 37.8974 78.3312 37.9774 75.7012C38.0374 73.7812 38.8374 71.8613 38.2674 69.9713C37.8774 68.6613 37.3374 68.2912 36.3874 67.4012C34.0674 65.2012 32.1174 63.6513 31.1474 60.4313C29.2074 54.0013 32.4374 47.7713 36.7974 43.1913C37.7174 42.2213 37.7674 40.9812 37.2374 39.8212C34.9274 34.8112 37.1874 22.8413 45.2274 26.4113C46.6074 27.0213 48.1974 26.8213 49.0374 25.4113C51.6374 21.0113 53.7374 17.5012 59.5374 17.4512C60.9874 17.4412 62.0974 17.7412 63.4374 18.2112C64.5074 18.5812 66.6074 20.2013 66.1274 19.1013C66.7074 20.4613 67.8674 20.7613 68.9274 20.4313C69.4574 20.3713 70.0074 20.1313 70.4974 19.6713C73.4974 16.8213 77.1474 13.7212 81.5074 13.5712C85.8574 13.4112 86.9474 15.7912 89.2274 18.8412C92.4074 23.1112 96.5674 20.8613 101.157 22.8813C104.937 24.5513 107.717 27.8013 108.647 31.8813C109.447 35.3713 107.277 38.8313 108.097 42.0513C108.577 43.9313 110.117 44.4913 111.437 45.5413C114.997 48.3913 116.627 51.9712 115.617 56.5912C114.207 63.0612 107.257 66.1013 105.997 72.2513C105.107 76.6013 105.807 79.7813 101.937 83.0013H101.947Z" fill="black"/>
<path d="M80.4974 47.2113C79.3674 47.7013 78.2174 48.1114 77.0574 48.5014C76.0774 46.7614 75.0675 45.0413 74.0075 43.3513C72.7575 41.3613 69.5474 41.6413 68.9174 44.0113C68.3374 46.2013 67.7474 48.3913 67.1674 50.5913C65.0174 50.7613 62.8775 50.7913 60.6975 50.7013C57.5075 50.5613 56.9875 55.3213 59.9575 56.1713C61.7275 56.6813 63.3574 57.3413 64.9174 58.2213C63.7774 61.2313 62.3874 65.8613 64.4774 67.6413C67.1574 69.9213 71.0375 66.1013 73.5275 63.5513C75.7175 64.7413 77.9475 65.7213 80.3975 66.3713C82.2775 66.8713 84.6275 65.0013 83.8175 62.9513C82.8775 60.5313 81.8475 58.1613 80.7675 55.8013C81.9975 54.2513 83.1874 52.6813 84.3074 51.0313C86.0474 48.4613 82.7774 46.2413 80.4974 47.2213V47.2113Z" fill="black"/>
</svg>
