<svg width="147" height="147" viewBox="0 0 147 147" fill="none" xmlns="http://www.w3.org/2000/svg">
<path d="M83.6999 7.8457C83.8299 7.3657 83.6499 7.3857 83.6999 7.8457Z" fill="black"/>
<path d="M131.29 39.5055C132.47 35.0655 133.46 30.5955 134.25 26.0655C134.53 24.4455 133.82 23.2555 132.31 22.6455C117.41 16.5555 102.4 10.7655 87.3199 5.13547C85.4099 4.42547 83.1799 6.64547 83.8999 8.55547C83.7899 8.25547 83.7399 8.01547 83.7199 7.84547C83.6899 7.94547 83.6599 8.06547 83.5999 8.20547C83.3699 8.80547 83.1599 9.41547 82.9299 10.0155C82.2099 11.9055 81.4399 13.7755 80.6799 15.6555C78.5699 20.8555 76.3999 26.0355 74.2399 31.2155C70.6499 39.8055 66.7399 48.3255 63.5599 57.0755C63.0199 58.5655 64.1799 60.0255 65.4999 60.4955C69.2399 61.8255 72.9899 63.1255 76.7299 64.4855C79.2099 65.3855 81.9099 66.9055 84.5899 67.0155C90.7399 67.2655 90.0599 61.3655 93.9799 58.5455C98.2999 57.1355 101.34 60.5655 101.3 64.6055C101.28 66.5655 100.12 68.5955 100.44 70.4955C101.05 74.1655 106.44 75.1855 109.44 76.1655C118.77 79.2055 120.92 71.8855 123.22 64.6455C130.59 66.3355 139.24 66.0155 141.83 57.3655C144.34 48.9955 138.69 42.1755 131.29 39.4955V39.5055ZM105.46 68.8555C105.36 68.8155 105.32 68.8055 105.46 68.8555ZM136.27 56.2255C133.77 62.0755 126.81 60.0055 122.13 58.6055C120.62 58.1555 119.19 59.1555 118.71 60.5455C117.71 63.4155 116.52 71.0855 113.49 71.5255C111.34 71.8355 108.62 69.6055 106.58 69.1455C106.46 69.1155 106.36 69.0955 106.27 69.0755C106.43 68.4255 106.56 67.7655 106.66 67.0955C107.18 63.4355 106.91 58.5355 104.01 55.8255C101.25 53.2355 96.1099 51.9855 92.4499 53.1955C92.0699 53.2455 91.6699 53.3855 91.2699 53.6555C88.0199 55.8755 86.7899 61.5855 82.3799 60.7055C78.2199 59.8755 73.9099 57.8755 69.7899 56.2155C73.0699 47.5455 76.9399 39.0655 80.4999 30.5155C82.6899 25.2655 84.8899 20.0255 86.9999 14.7455C87.3199 13.9455 87.9499 12.7555 88.4899 11.5055C101.87 16.5155 115.18 21.6655 128.41 27.0455C127.54 31.6355 126.48 36.1755 125.2 40.6855C124.81 42.0755 125.68 43.7955 127.14 44.1055C132.61 45.2855 139.03 49.7655 136.27 56.2255Z" fill="black"/>
<path d="M81.8 114.505C81.05 112.165 80.54 108.975 79.21 106.855C78.35 105.475 77.12 104.505 75.43 104.405C71.84 104.195 63.76 109.695 63.78 102.285C63.8 95.1853 73.24 100.225 74.96 94.6552C75.6 92.5652 74.37 89.9952 73.75 88.0452C72.4 83.8052 70.72 79.6852 69.32 75.4652C68.87 74.0952 67.38 73.0252 65.9 73.5252C61.58 74.9752 57.26 76.3553 52.86 77.5553C51.37 71.7253 49.39 66.7152 42.14 66.1352C35.03 65.5652 30.47 71.5652 29.98 78.2152C29.91 79.3952 29.91 80.5752 29.98 81.7452C30.35 82.9352 30.16 83.1552 29.4 82.4052C28.06 83.3552 24.57 83.4452 22.94 83.7752C20.66 84.2252 17.88 84.2252 15.8 85.2752C11.29 87.5452 13.68 94.7453 15.35 99.8353C7.84998 101.255 1.16997 108.945 4.89997 116.875C6.57997 120.445 10.91 122.035 14.63 122.315C16.37 122.445 19.11 121.515 20.08 122.875C21.09 124.295 21.24 129.065 21.55 130.695C22.1 133.635 21.73 138.285 24.55 140.215C28.27 142.765 35.78 139.435 39.69 138.635C54.35 135.655 68.93 132.225 83.72 129.915C85.17 129.685 86.08 127.795 85.66 126.495C84.38 122.495 83.1 118.495 81.83 114.495L81.8 114.505ZM37.15 133.485C35.09 133.905 33.02 134.295 30.96 134.745C27.89 135.415 27.96 135.965 27.56 132.985C27.12 129.695 26.33 126.435 25.74 123.165C25.35 121.025 25.01 118.545 23.12 117.175C21.13 115.725 19.24 116.565 17.02 116.675C14.23 116.805 10.06 116.765 9.58997 113.155C8.96997 108.455 13.9 104.405 18.28 105.145C20.39 105.505 22.2 103.925 21.7 101.725C21.03 98.7453 20.26 95.7853 19.59 92.8053C18.97 90.0553 18.32 90.5053 20.58 89.8353C24.53 88.6753 29.31 89.0353 33.03 87.1653C36.16 85.5853 35.39 82.9852 35.48 79.9952C35.59 76.8152 35.98 75.0753 38.6 73.1953C40.57 71.7753 42.4 70.9453 44.72 72.5953C47.17 74.3353 47.45 78.9052 48.08 81.5452C48.34 82.6152 49.6 83.7353 50.76 83.5853C51.85 83.4553 52.77 83.3353 53.82 83.0653C57.55 82.0653 61.22 80.9153 64.88 79.7053C66.15 83.2953 67.52 86.8552 68.67 90.4952C68.8 91.0052 68.97 91.5053 69.12 92.0053C69.1 92.0053 69.09 92.0052 69.07 92.0152C67.6 92.0852 66.28 92.5752 64.91 93.0752C59.73 94.9552 57.38 98.4152 58.36 104.135C59.34 109.855 63.65 113.105 69.43 111.985C70.16 111.845 73.89 110.035 74.85 110.085C74.29 110.195 75.71 113.755 75.9 114.355C77.04 117.915 78.18 121.485 79.32 125.045C69.99 126.595 60.75 128.565 51.5 130.525C46.72 131.535 41.93 132.515 37.14 133.485H37.15Z" fill="black"/>
</svg>
