<svg width="147" height="147" viewBox="0 0 147 147" fill="none" xmlns="http://www.w3.org/2000/svg">
<path d="M128.451 13.1274C128.221 11.8774 126.921 11.1574 125.771 11.0874C115.971 10.4474 105.871 13.3874 96.361 17.8074C96.311 17.7874 96.271 17.7674 96.211 17.7474C83.921 14.1174 71.651 19.1674 60.801 24.8874C50.221 30.4674 41.051 38.3674 33.741 47.8074C32.641 49.2274 32.641 52.1274 34.971 52.4574C39.381 53.0974 43.781 53.5174 48.211 53.7174C42.291 60.2074 36.821 67.0874 31.811 73.9874C30.971 75.1374 31.241 76.2674 31.991 77.0374C32.091 77.2174 32.211 77.3974 32.361 77.5674C32.721 77.9774 33.091 78.3774 33.441 78.7974C29.091 81.0474 24.641 83.5674 21.701 87.5874C17.731 93.0074 18.251 99.6674 17.051 105.967C16.751 107.557 17.791 109.707 19.731 109.487C20.851 109.367 21.971 109.247 23.081 109.127C21.301 116.097 21.201 123.137 22.541 130.367C22.711 131.277 23.611 132.107 24.481 132.307C26.771 132.847 30.021 131.977 33.001 130.627C33.051 131.787 33.341 132.867 33.951 133.737C36.201 136.917 41.761 134.377 44.461 133.257C55.061 128.857 64.551 122.437 71.241 113.057C72.231 113.477 73.461 113.077 74.221 112.407C79.561 107.727 84.951 102.777 90.101 97.5374C91.171 101.557 92.241 105.577 93.301 109.607C93.821 111.547 96.551 112.417 97.951 110.837C106.611 101.097 113.831 90.2274 119.121 78.2974C123.841 67.6474 128.461 55.5874 124.311 44.0974C128.091 33.9574 130.291 23.3374 128.421 13.1474L128.451 13.1274ZM60.461 31.4374C68.611 26.6574 78.361 21.8674 88.021 22.0874C82.531 25.1774 77.351 28.5774 72.671 31.8374C65.811 36.6074 59.371 42.2174 53.351 48.2874C53.291 48.2874 53.231 48.2674 53.171 48.2674C49.101 48.2674 45.081 48.0574 41.061 47.6474C46.651 41.2674 53.101 35.7574 60.461 31.4374ZM51.051 123.807C48.591 125.187 46.021 126.477 43.451 127.647C43.261 127.737 39.641 129.427 38.381 129.547C39.111 129.227 39.581 126.537 39.951 125.967C41.731 123.247 37.821 120.487 35.581 122.597C33.671 124.387 31.201 125.037 28.781 125.847C28.501 125.937 28.001 126.077 27.491 126.217C26.661 119.567 27.381 113.087 29.621 106.667C30.171 105.087 28.681 102.957 26.941 103.147C25.601 103.297 24.261 103.437 22.911 103.587C23.301 99.4674 23.481 95.1274 25.611 91.6774C28.141 87.5774 32.861 85.3474 36.991 83.2274C37.081 83.1774 37.141 83.1274 37.221 83.0774C37.691 83.5874 38.161 84.0774 38.631 84.5774C38.501 84.6774 38.381 84.7874 38.261 84.9274C32.681 91.7974 34.011 103.097 36.141 111.097C36.561 112.657 38.091 113.287 39.561 113.037C40.241 112.927 40.901 112.777 41.571 112.647C41.361 113.917 41.261 115.207 41.251 116.607C41.251 118.397 43.041 119.787 44.771 119.287C52.111 117.177 58.321 113.217 63.201 107.327C63.241 107.277 63.271 107.227 63.301 107.177C64.441 108.067 65.581 108.947 66.731 109.817C62.641 115.697 57.251 120.327 51.021 123.817L51.051 123.807ZM72.101 106.867C59.481 97.6274 48.011 87.0474 37.721 75.2774C48.221 61.0174 60.961 46.7574 75.481 36.6474C88.821 27.3574 106.421 16.5374 123.361 16.5774C124.341 25.1274 121.711 33.9874 118.841 41.9274C115.741 50.5074 111.791 58.9374 107.241 66.8374C98.501 82.0174 85.211 95.2474 72.101 106.867ZM112.781 78.8674C108.621 87.5374 103.421 95.5974 97.341 103.017C96.441 99.6074 95.531 96.2074 94.631 92.7974C101.871 84.9374 108.411 76.4674 113.351 67.3074C115.681 62.9774 118.121 58.3474 120.371 53.5174C120.481 62.2574 116.491 71.1374 112.781 78.8674Z" fill="black"/>
<path d="M98.051 39.5271C93.981 37.5371 88.761 38.1171 85.571 41.4671C81.511 45.7371 81.911 53.0071 86.621 56.6271C92.011 60.7671 99.741 57.8171 102.671 52.2271C102.881 51.9471 103.051 51.6071 103.151 51.1871C103.281 50.8471 103.331 50.5371 103.341 50.2471C104.061 45.8271 102.261 41.5871 98.051 39.5271ZM88.781 50.6571C87.671 48.3271 88.611 45.3671 91.011 44.3071C94.781 42.6471 98.751 45.7271 97.781 49.6971C96.381 53.2371 90.551 54.3671 88.781 50.6471V50.6571Z" fill="black"/>
<path d="M68.841 63.0675C63.161 64.1675 59.471 69.6675 61.141 75.2875C61.211 75.5175 61.3009 75.7275 61.4109 75.9175C61.4109 75.9275 61.411 75.9376 61.421 75.9576C63.641 81.1876 70.211 83.5775 75.241 80.8675C79.091 78.7975 81.321 74.0375 80.211 69.7575C78.931 64.8275 73.691 62.1275 68.831 63.0675H68.841ZM72.871 75.8075C70.401 77.3575 67.7109 75.9575 66.4709 73.6375C65.0609 68.2375 74.2009 66.3175 74.9109 71.5575C75.1309 73.1775 74.241 74.9375 72.871 75.7975V75.8075Z" fill="black"/>
</svg>
