<svg width="147" height="147" viewBox="0 0 147 147" fill="none" xmlns="http://www.w3.org/2000/svg">
<path d="M110.454 24.9957C100.544 13.1957 84.3937 8.18566 69.4037 10.5857C38.5937 15.5257 14.9937 51.4957 35.4037 79.3357C37.7137 82.4857 40.4137 85.2856 43.5537 87.6056C45.5737 89.1056 45.7737 88.8857 44.9137 91.1157C43.9737 93.5557 42.2737 95.9356 41.0337 98.2656C35.8737 107.956 30.2637 117.496 25.3537 127.306C24.8337 128.346 24.8137 129.856 25.7937 130.676C28.6637 133.116 32.1337 134.196 35.4137 135.946C36.6537 136.606 38.5637 136.356 39.2237 134.946C45.1937 122.286 50.9237 109.646 58.2337 97.6857C67.6037 102.576 81.7937 99.2956 90.6637 95.4856C102.644 90.3356 112.494 81.0456 118.084 69.2556C124.834 53.4356 121.454 38.0857 110.464 24.9957H110.454ZM78.9937 89.3357C64.9337 90.8757 49.7937 84.2556 41.5837 72.6956C37.6937 67.2156 35.5137 60.6957 35.9037 53.9557C36.3137 46.7957 40.5037 40.1957 44.7237 34.6157C56.0737 19.5957 76.7137 10.7856 93.5537 21.9456C106.474 31.3956 114.904 47.9256 110.334 64.0156C106.414 77.8356 93.0637 87.8156 79.0137 89.3556L78.9937 89.3357Z" fill="black"/>
<path d="M73.4636 21.2158C57.4636 26.9058 30.7337 50.9858 46.3437 69.2058C48.6737 71.9358 52.6037 67.9758 50.2837 65.2658C43.7537 57.6358 50.2436 46.4058 55.5536 40.0158C60.6936 33.8358 67.3937 29.2758 74.9537 26.5858C78.3037 25.3958 76.8637 20.0058 73.4737 21.2158H73.4636Z" fill="black"/>
<path d="M60.4637 74.4856C60.1337 74.3856 59.8037 74.2756 59.4737 74.1556C59.4037 74.1156 58.9437 73.9056 58.8737 73.8656C58.5837 73.7056 58.2937 73.5456 58.0137 73.3656C57.8537 73.2656 57.6937 73.1556 57.5437 73.0456C57.7237 73.1956 57.6837 73.1656 57.4337 72.9556C56.3037 72.0356 54.5836 71.7656 53.4936 72.9556C52.5636 73.9756 52.2836 75.9156 53.4936 76.8956C55.1536 78.2456 56.9237 79.2556 58.9837 79.8656C60.3837 80.2856 62.0837 79.3656 62.4037 77.9256C62.7437 76.4256 61.9537 74.9456 60.4637 74.5056V74.4856Z" fill="black"/>
</svg>
