<svg width="147" height="147" viewBox="0 0 147 147" fill="none" xmlns="http://www.w3.org/2000/svg">
<path d="M137.299 23.4213C133.339 23.1113 129.379 22.9413 125.409 22.8913C125.709 19.4913 125.779 16.1013 125.589 12.6813C125.399 9.12126 119.829 9.09126 120.019 12.6813C120.239 16.7813 120.099 20.8412 119.629 24.9012C118.099 26.3112 116.569 27.7213 115.049 29.1213C115.129 28.1413 115.229 27.2013 115.249 26.3613C115.299 23.8413 115.359 21.3213 115.409 18.8013C115.489 15.2213 109.919 15.2213 109.839 18.8013C109.759 22.4613 109.679 26.1312 109.609 29.7912C109.579 31.0812 109.329 32.7413 109.529 34.2013C106.229 37.2413 102.929 40.2813 99.6294 43.3213C90.3094 34.2813 77.9394 28.4212 64.7394 26.2912C42.9894 22.7912 25.0894 37.7213 14.9794 55.8213C2.97941 77.3013 3.79939 103.261 22.3394 120.791C38.8794 136.421 68.9794 142.951 88.9094 130.091C110.069 116.431 120.729 88.2912 113.139 64.2212C110.899 57.9012 107.579 52.2713 103.439 47.3813C106.899 44.1913 110.349 41.0113 113.809 37.8213C115.809 38.1113 118.119 37.9813 119.729 38.1313C123.329 38.4813 126.929 38.8313 130.529 39.1713C134.089 39.5113 134.069 33.9412 130.529 33.6012C127.599 33.3212 124.679 33.0313 121.749 32.7513C121.029 32.6813 120.249 32.6413 119.449 32.6113C120.969 31.2113 122.479 29.8112 123.999 28.4112C128.439 28.4412 132.879 28.6113 137.309 28.9513C140.879 29.2313 140.869 23.6613 137.309 23.3813L137.299 23.4213ZM107.759 65.7212C113.669 84.4412 107.569 105.301 93.7494 119.021C77.5094 135.131 51.2294 134.191 32.7794 122.001C12.7194 108.741 7.61937 84.7512 17.3794 63.4012C24.5594 47.6812 39.6994 30.4913 58.4994 31.1813C72.1294 31.6813 85.7294 37.5613 95.5694 47.0813C93.3994 49.0813 91.2294 51.0812 89.0494 53.0912C82.3294 46.3712 73.5094 42.0013 63.4494 41.3013C47.0294 40.1513 34.0294 48.6513 27.7294 63.5713C22.4394 76.0913 19.6294 94.2913 28.9694 105.621C40.3594 119.431 59.9994 127.781 77.1494 120.551C97.2994 112.061 106.159 88.2913 98.9894 68.1713C97.3794 64.2113 95.2594 60.5513 92.7194 57.2713C94.9294 55.2313 97.1394 53.1912 99.3594 51.1512C102.969 55.4712 105.859 60.3612 107.759 65.7212ZM78.5094 95.0912C70.5094 104.731 53.5594 106.021 45.4594 96.1012C45.3994 96.0312 45.3594 95.9513 45.3094 95.8713C45.2094 95.7613 45.1094 95.6612 45.0294 95.5312C38.6294 86.2412 38.4194 71.6412 48.1094 64.4012C56.0794 58.4512 67.9894 59.4213 75.6994 65.3913C70.6294 70.0613 65.5594 74.7312 60.4894 79.4112C57.8494 81.8412 61.7894 85.7712 64.4294 83.3512C69.4794 78.7012 74.5194 74.0513 79.5694 69.3913C84.9894 76.9013 84.5994 87.7513 78.5194 95.0813L78.5094 95.0912Z" fill="black"/>
</svg>
