<svg width="147" height="147" viewBox="0 0 147 147" fill="none" xmlns="http://www.w3.org/2000/svg">
<path d="M67.35 115.98C85.45 119.77 104.66 113.4 115.28 97.9599C124.25 84.9099 125.63 67.3299 119.02 52.9799C109.44 32.1999 84.97 22.7599 63.47 29.0599C45.31 35.2399 34.4301 52.8799 33.5001 71.6199C32.4301 93.3399 45.96 111.49 67.35 115.98ZM39.2801 79.1099H45.1301C46.5301 79.1099 47.3501 78.1499 46.7601 76.7899C46.1801 75.4399 44.4101 74.0799 42.8901 74.0799H38.9901C38.9601 64.7099 41.8701 55.2799 47.2701 47.7799C47.4201 47.8199 47.57 47.8699 47.72 47.8899C47.78 47.9299 47.8401 47.9699 47.9001 48.0099C48.2901 48.2799 48.6901 48.5599 49.0801 48.8299C50.0001 49.4699 50.9101 50.1099 51.8301 50.7399C52.7801 51.3999 54.85 52.2599 55.72 51.0099C56.59 49.7699 55.0501 48.0899 54.1301 47.4499C52.8201 46.5399 51.5101 45.6298 50.2001 44.7198C50.1001 44.6498 49.9901 44.5799 49.8901 44.4999C53.9101 39.9999 58.9701 36.4498 64.9601 34.4098C67.6601 33.6198 70.4201 33.0999 73.1901 32.8499C73.1401 34.0699 73.1301 35.2899 73.1901 36.5199C73.2901 39.0099 79.2101 41.6399 79.0801 38.1699C79.0101 36.3499 79.1101 34.5299 79.3201 32.7299C88.4801 33.1799 97.3801 36.5199 104.32 42.4999C102.35 43.6699 100.49 44.9999 98.7701 46.5299C97.6301 47.5399 98.3301 48.9599 99.2701 49.8899C100.03 50.6399 102.33 52.0799 103.44 51.0999C105.12 49.6099 106.94 48.2999 108.86 47.1499C109.92 48.4399 110.91 49.8199 111.81 51.2799C115.92 57.9299 117.82 65.7199 117.57 73.4499H112.11C110.71 73.4499 109.89 74.4099 110.48 75.7699C111.06 77.1199 112.83 78.4799 114.35 78.4799H117.1C116.57 81.8799 115.62 85.2199 114.23 88.3999C112.52 92.3099 110.25 95.6999 107.58 98.5899C107.52 98.5599 107.46 98.5099 107.4 98.4799C107.24 98.3899 107.15 98.3399 107.12 98.3199C106.97 98.2299 106.83 98.1399 106.68 98.0499C106.3 97.7999 105.92 97.5299 105.55 97.2599C105.42 97.1599 105.28 97.0499 105.15 96.9499C105.19 96.9799 105.12 96.9099 104.91 96.7399C104.58 96.4199 104.25 96.1099 103.93 95.7899C103.01 94.8499 101.05 93.7899 99.7601 94.5799C98.4201 95.3999 99.5001 97.1599 100.26 97.9399C101.58 99.2899 103.05 100.45 104.62 101.47C97.8301 107.33 89.1401 110.52 80.3201 111.08C80.2501 109.4 80.0901 107.72 79.7701 106.05C79.4701 104.49 77.9101 103.24 76.4401 102.84C75.3101 102.53 73.5901 102.84 73.8901 104.4C74.3101 106.61 74.5201 108.83 74.4501 111.07C66.2901 110.52 58.3701 107.72 52.0901 102.73C54.1301 101.25 55.9701 99.5099 57.5601 97.5399C59.2401 95.4599 53.8401 91.5399 52.0901 93.7099C50.7001 95.4299 49.1201 96.8999 47.3701 98.1899C43.3801 93.5199 40.54 87.6199 39.47 80.4799C39.4 80.0299 39.3501 79.5799 39.3001 79.1199L39.2801 79.1099Z" fill="black"/>
<path d="M75.6799 78.8198C81.3399 78.9398 87.1499 78.2599 92.7899 77.8399C96.0199 77.5999 91.6899 72.6898 89.2199 72.8698C84.9399 73.1898 80.2999 73.9099 75.8599 73.9499C76.1099 72.6399 76.3499 71.3198 76.5799 69.9998C76.9399 67.9198 77.2599 65.8398 77.5499 63.7498C78.2199 58.8798 78.6799 53.9899 79.0099 49.0799C79.1799 46.4799 73.3099 43.4298 73.1199 46.2598C72.7399 51.8698 72.1799 57.4599 71.3599 63.0199C70.8299 66.5499 68.3799 72.4099 69.8599 75.7799C70.9399 78.2299 73.2999 78.7698 75.6799 78.8198Z" fill="black"/>
<path d="M134.65 48.2899C126.07 28.9099 107.42 16.2899 86.8 12.9799C82.99 12.3699 86.58 17.6199 89.04 18.0099C106.17 20.7599 121.5 31.2299 128.81 47.1699C134.99 60.6499 135.44 76.5599 130.19 90.4199C124.9 104.4 113.53 115.31 100.21 121.69C86.4701 128.27 66.29 132 52.6 123.57C36.72 113.79 22.79 97.7999 23.33 78.5099C24.79 80.1399 26.28 81.7399 27.8 83.2999C28.7 84.2199 30.7 85.3199 31.97 84.5099C33.3 83.6699 32.24 81.9399 31.47 81.1499C28.68 78.2899 26.01 75.3299 23.48 72.2399C22.55 71.1099 20.9 69.8299 19.32 70.2099C19.16 70.2499 19.03 70.3099 18.91 70.3699C18.79 70.3799 18.67 70.4199 18.56 70.4599C17.85 70.3799 17.2101 70.5599 16.8401 71.1399C13.6601 76.0999 10.51 81.0899 7.41 86.0999C5.95 88.4499 11.46 92.2299 12.88 89.9299C14.47 87.3699 16.07 84.8099 17.68 82.2599C19.51 97.7899 29.65 111.21 42.01 120.98C49.71 127.07 57.5801 131.68 67.4601 132.8C76.5101 133.82 85.84 132.9 94.55 130.26C111.17 125.23 126.32 114.02 133.98 98.1799C141.47 82.6799 141.6 64.0099 134.64 48.2899H134.65Z" fill="black"/>
</svg>
