<svg width="512" height="512" viewBox="0 0 512 512" fill="none" xmlns="http://www.w3.org/2000/svg">
<g clip-path="url(#clip0_85_32941)">
<mask id="mask0_85_32941" style="mask-type:luminance" maskUnits="userSpaceOnUse" x="0" y="0" width="512" height="512">
<path d="M512 0H0V512H512V0Z" fill="white"/>
</mask>
<g mask="url(#mask0_85_32941)">
<mask id="mask1_85_32941" style="mask-type:luminance" maskUnits="userSpaceOnUse" x="23" y="68" width="383" height="118">
<path d="M23.063 68.0361H292.901C362.09 68.0361 405.91 111.856 405.91 185.658H87.6396L23.063 68.0361Z" fill="white"/>
</mask>
<g mask="url(#mask1_85_32941)">
<path d="M433.585 58.8105H-4.61279V204.108H433.585V58.8105Z" fill="url(#paint0_linear_85_32941)"/>
</g>
<mask id="mask2_85_32941" style="mask-type:luminance" maskUnits="userSpaceOnUse" x="0" y="277" width="360" height="167">
<path d="M23.0631 277.91H304.432L359.784 443.964H0L23.0631 277.91Z" fill="white"/>
</mask>
<g mask="url(#mask2_85_32941)">
<path d="M440.505 268.685H-9.2251V464.721H440.505V268.685Z" fill="url(#paint1_linear_85_32941)"/>
</g>
<path d="M311.351 185.657H405.91C464.721 185.657 512 232.937 512 291.747C512 348.252 468.18 389.765 415.135 394.378C422.054 380.54 425.514 364.396 425.514 348.252C425.514 311.351 395.532 281.369 358.631 281.369H283.676L311.351 185.657Z" fill="url(#paint2_linear_85_32941)"/>
</g>
</g>
<defs>
<linearGradient id="paint0_linear_85_32941" x1="-4.61279" y1="58.8105" x2="433.585" y2="58.8105" gradientUnits="userSpaceOnUse">
<stop stop-color="#FF0000"/>
<stop offset="1" stop-color="#CE152A"/>
</linearGradient>
<linearGradient id="paint1_linear_85_32941" x1="-9.2251" y1="464.721" x2="134.39" y2="135.25" gradientUnits="userSpaceOnUse">
<stop stop-color="#0EA5FF"/>
<stop offset="1" stop-color="#B61084"/>
</linearGradient>
<linearGradient id="paint2_linear_85_32941" x1="283.676" y1="394.378" x2="491.558" y2="166.97" gradientUnits="userSpaceOnUse">
<stop stop-color="#0EA5FF"/>
<stop offset="1" stop-color="#B61084"/>
</linearGradient>
<clipPath id="clip0_85_32941">
<rect width="512" height="512" fill="white"/>
</clipPath>
</defs>
</svg>