<svg width="468" height="488" viewBox="0 0 468 488" fill="none" xmlns="http://www.w3.org/2000/svg">
<path d="M467.43 155.004V439.956C467.43 466.49 445.92 488 419.386 488H123.106C96.572 488 75.062 466.49 75.062 439.956V48.044C75.062 21.51 96.572 0 123.106 0H321.547L467.43 155.004Z" fill="#FD9DB3"/>
<path d="M467.429 155.004H353.576C335.887 155.004 321.547 140.664 321.547 122.975V0.000976562L467.429 155.004Z" fill="#DF1242"/>
<path d="M380.603 415.607H9.2C4.119 415.607 0 411.488 0 406.407V238.083C0 233.002 4.119 228.883 9.2 228.883H380.603C385.684 228.883 389.803 233.002 389.803 238.083V406.407C389.803 411.488 385.684 415.607 380.603 415.607Z" fill="#DF1242"/>
<path d="M98.9631 370.919C97.1491 370.919 95.5221 370.544 94.0521 369.793C92.5821 369.042 91.8311 367.854 91.8311 366.227V277.177C91.8311 275.895 92.3311 274.831 93.3641 273.955C94.3961 273.048 95.7411 272.579 97.3361 272.579H123.579C129.053 272.579 134.026 273.58 138.499 275.488C143.003 277.427 146.538 280.555 149.134 284.903C151.73 289.251 153.044 295.037 153.044 302.2V303.263C153.044 310.426 151.699 316.212 149.009 320.56C146.319 324.908 142.691 328.067 138.093 330.037C133.526 332.008 128.428 333.008 122.766 333.008H106.095V366.226C106.095 367.852 105.344 369.041 103.874 369.792C102.372 370.544 100.745 370.919 98.9631 370.919ZM106.094 321.687H122.765C127.801 321.687 131.711 320.248 134.526 317.402C137.372 314.524 138.78 310.114 138.78 304.234V302.608C138.78 296.665 137.372 292.286 134.526 289.471C131.711 286.656 127.801 285.248 122.765 285.248H106.094V321.687Z" fill="white"/>
<path d="M171.591 370.919C169.714 370.919 168.182 370.481 167.024 369.605C165.835 368.698 165.272 367.603 165.272 366.352V277.177C165.272 275.895 165.835 274.831 167.024 273.955C168.181 273.048 169.714 272.579 171.591 272.579H195.394C201.055 272.579 206.185 273.58 210.814 275.55C215.412 277.521 219.04 280.711 221.699 285.09C224.358 289.5 225.671 295.349 225.671 302.606V340.954C225.671 348.211 224.357 354.028 221.699 358.407C219.04 362.817 215.412 366.008 210.814 367.978C206.185 369.949 201.055 370.918 195.394 370.918H171.591V370.919ZM179.536 358.283H195.394C200.43 358.283 204.34 356.875 207.186 354.029C210.001 351.214 211.409 346.835 211.409 340.955V302.607C211.409 296.664 210.001 292.285 207.186 289.47C204.34 286.655 200.43 285.247 195.394 285.247H179.536V358.283Z" fill="white"/>
<path d="M249.506 370.919C247.692 370.919 246.065 370.544 244.595 369.793C243.125 369.042 242.374 367.854 242.374 366.227V277.302C242.374 275.769 243.031 274.612 244.376 273.83C245.721 273.017 247.16 272.579 248.692 272.579H295.923C297.518 272.579 298.676 273.267 299.395 274.612C300.114 275.957 300.49 277.333 300.49 278.772C300.49 280.492 300.115 281.994 299.333 283.276C298.582 284.59 297.425 285.247 295.924 285.247H256.638V316.056H277.47C279.003 316.056 280.16 316.619 280.911 317.808C281.662 318.965 282.068 320.31 282.068 321.812C282.068 323.094 281.693 324.314 280.973 325.534C280.254 326.754 279.096 327.348 277.47 327.348H256.638V366.227C256.638 367.853 255.887 369.042 254.417 369.793C252.916 370.544 251.289 370.919 249.506 370.919Z" fill="white"/>
</svg>
