<svg width="408" height="285" viewBox="0 0 408 285" fill="none" xmlns="http://www.w3.org/2000/svg">
<path d="M407.311 248.209H0V248.413H407.311V248.209Z" fill="#EBEBEB"/>
<path d="M366.499 261.321H339.517V261.525H366.499V261.321Z" fill="#EBEBEB"/>
<path d="M269.819 263.532H262.738V263.736H269.819V263.532Z" fill="#EBEBEB"/>
<path d="M338.702 253.757H323.068V253.961H338.702V253.757Z" fill="#EBEBEB"/>
<path d="M77.9204 255.125H42.7344V255.329H77.9204V255.125Z" fill="#EBEBEB"/>
<path d="M90.3328 255.125H85.1738V255.329H90.3328V255.125Z" fill="#EBEBEB"/>
<path d="M183.41 258.565H107.099V258.769H183.41V258.565Z" fill="#EBEBEB"/>
<path d="M203.656 285C290.887 285 361.602 280.87 361.602 275.776C361.602 270.682 290.887 266.552 203.656 266.552C116.424 266.552 45.7095 270.682 45.7095 275.776C45.7095 280.87 116.424 285 203.656 285Z" fill="#0E5579" fill-opacity="0.1"/>
<path d="M324.687 269.134L330.767 269.816L330.013 251.84L322.752 252.868L324.687 269.134Z" fill="#263238"/>
<path d="M292.915 269.341L299.05 268.728L300.613 252.966H293.28L292.915 269.341Z" fill="#263238"/>
<path opacity="0.6" d="M324.687 269.134L330.767 269.816L330.013 251.84L322.752 252.868L324.687 269.134Z" fill="white"/>
<path opacity="0.6" d="M292.915 269.341L299.05 268.728L300.613 252.966H293.28L292.915 269.341Z" fill="white"/>
<path d="M323.017 136.382C323.017 136.382 322.394 140.437 322.072 140.437C321.749 140.437 317.979 136.832 317.979 136.832L320.498 133.348L323.017 136.382Z" fill="#263238"/>
<path opacity="0.6" d="M323.017 136.382C323.017 136.382 322.394 140.437 322.072 140.437C321.749 140.437 317.979 136.832 317.979 136.832L320.498 133.348L323.017 136.382Z" fill="white"/>
<path d="M316.446 87.9893C320.137 88.7933 330.934 112.896 331.901 116.716C332.868 120.537 323.521 138.153 323.521 138.153L319.009 133.175L324.208 116.715L315.656 101.571L316.446 87.9893Z" fill="#263238"/>
<path opacity="0.8" d="M316.446 87.9893C320.137 88.7933 330.934 112.896 331.901 116.716C332.868 120.537 323.521 138.153 323.521 138.153L319.009 133.175L324.208 116.715L315.656 101.571L316.446 87.9893Z" fill="white"/>
<path d="M331.765 268.269H324.247C323.995 268.269 323.775 268.444 323.718 268.69L322.444 274.172C322.312 274.741 322.754 275.278 323.336 275.269C325.756 275.227 327.522 275.085 330.569 275.085C332.443 275.085 338.093 275.28 340.682 275.28C343.214 275.28 343.634 272.72 342.577 272.488C337.836 271.449 334.269 270.016 332.762 268.648C332.491 268.402 332.134 268.269 331.765 268.269Z" fill="#263238"/>
<path d="M299.163 136.978C299.163 136.978 301.403 148.652 304.206 162.688C305.819 170.777 307.627 179.64 309.289 187.526C309.892 190.361 310.47 193.065 311.024 195.566C315.26 214.791 322.967 265.708 322.967 265.708L332.522 264.128C332.522 264.128 330.624 208.787 327.593 189.204C324.832 171.323 319.244 129.859 319.244 129.859L299.163 136.978Z" fill="#263238"/>
<path opacity="0.2" d="M304.206 162.688C305.819 170.777 307.627 179.64 309.289 187.526C312.637 170.223 306.837 155.698 306.837 155.698C305.827 157.824 304.955 160.187 304.206 162.688Z" fill="black"/>
<path d="M299.976 268.269H292.458C292.206 268.269 291.985 268.444 291.928 268.69L290.655 274.172C290.523 274.741 290.964 275.278 291.547 275.269C293.966 275.227 295.732 275.085 298.779 275.085C300.654 275.085 306.304 275.28 308.893 275.28C311.424 275.28 311.845 272.72 310.787 272.488C306.046 271.449 302.48 270.016 300.973 268.648C300.701 268.402 300.344 268.269 299.976 268.269Z" fill="#263238"/>
<path d="M307.048 130.681C307.048 130.681 306.769 172.518 306.999 190.61C307.251 210.424 301.246 265.533 301.246 265.533L291.582 264.718C291.582 264.718 291.202 214.216 289.701 194.586C288.022 172.634 286.74 134.795 286.74 134.795L307.048 130.681Z" fill="#263238"/>
<path d="M286.74 136.382C286.768 133.134 286.331 127.948 286.198 123.447C286.078 119.31 285.833 114.746 285.361 109.961C284.712 103.422 283.658 96.468 281.914 89.63C281.914 89.63 285.816 88.6077 290.238 87.9495C291.107 87.8216 292 87.7043 292.883 87.6114C297.083 87.1731 303.17 86.6949 306.895 86.8228C307.471 86.8424 308.037 86.8693 308.594 86.9124C312.821 87.2155 316.447 87.9902 316.447 87.9902C316.447 87.9902 323.652 104.103 320.082 135.189L286.74 136.382Z" fill="#263238"/>
<path opacity="0.8" d="M286.74 136.382C286.768 133.134 286.331 127.948 286.198 123.447C286.078 119.31 285.833 114.746 285.361 109.961C284.712 103.422 283.658 96.468 281.914 89.63C281.914 89.63 285.816 88.6077 290.238 87.9495C291.107 87.8216 292 87.7043 292.883 87.6114C297.083 87.1731 303.17 86.6949 306.895 86.8228C307.471 86.8424 308.037 86.8693 308.594 86.9124C312.821 87.2155 316.447 87.9902 316.447 87.9902C316.447 87.9902 323.652 104.103 320.082 135.189L286.74 136.382Z" fill="white"/>
<path opacity="0.2" d="M284.022 99.7793C284.6 103.233 285.032 106.647 285.358 109.962C285.415 110.532 285.464 111.094 285.513 111.656C287.28 106.231 286.751 100.92 286.751 100.92C285.708 100.26 284.804 99.8933 284.022 99.7793Z" fill="black"/>
<path d="M293.54 71.7733C294.633 76.2269 295.899 84.4285 292.885 87.6112C295.308 89.8596 298.827 91.69 303.886 91.2949C307.76 90.9919 307.83 88.2727 306.895 86.821C301.813 85.9054 301.769 82.1728 302.482 78.6243L293.54 71.7733Z" fill="#263238"/>
<path opacity="0.6" d="M293.54 71.7733C294.633 76.2269 295.899 84.4285 292.885 87.6112C295.308 89.8596 298.827 91.69 303.886 91.2949C307.76 90.9919 307.83 88.2727 306.895 86.821C301.813 85.9054 301.769 82.1728 302.482 78.6243L293.54 71.7733Z" fill="white"/>
<path opacity="0.2" d="M297.185 74.5684L302.477 78.6195C302.305 79.4594 302.181 80.3082 302.161 81.1285C300.228 80.9599 297.492 79.0032 297.194 77.0057C297.046 76.0094 297.044 75.0441 297.185 74.5684Z" fill="black"/>
<path d="M291.329 65.8112C292.83 71.8247 293.403 75.4237 297.054 77.9474C302.547 81.7427 309.541 77.488 309.867 71.1282C310.161 65.4038 307.657 56.5318 301.253 55.274C294.944 54.0342 289.829 59.7976 291.329 65.8112Z" fill="#263238"/>
<path opacity="0.6" d="M291.329 65.8112C292.83 71.8247 293.403 75.4237 297.054 77.9474C302.547 81.7427 309.541 77.488 309.867 71.1282C310.161 65.4038 307.657 56.5318 301.253 55.274C294.944 54.0342 289.829 59.7976 291.329 65.8112Z" fill="white"/>
<path d="M300.873 65.7085C300.966 66.2038 301.302 66.5549 301.626 66.4914C301.95 66.4278 302.138 65.9749 302.047 65.4796C301.954 64.9843 301.618 64.6332 301.294 64.6968C300.97 64.7595 300.781 65.2124 300.873 65.7085Z" fill="#263238"/>
<path d="M306.472 64.6136C306.564 65.1089 306.901 65.46 307.225 65.3965C307.548 65.3329 307.737 64.88 307.645 64.3847C307.553 63.8894 307.217 63.5391 306.893 63.6019C306.569 63.6646 306.381 64.1183 306.472 64.6136Z" fill="#263238"/>
<path opacity="0.2" d="M304.738 65.2084C304.738 65.2084 306.403 67.7353 307.901 68.8269C307.18 69.7703 305.621 69.6855 305.621 69.6855L304.738 65.2084Z" fill="black"/>
<path d="M303.317 72.1C303.526 72.0878 303.743 72.0609 303.97 72.0161C304.05 72.0007 304.103 71.9225 304.088 71.8426C304.073 71.762 303.994 71.7099 303.916 71.7253C301.739 72.1481 300.445 70.8292 300.432 70.8162C300.376 70.7575 300.282 70.7567 300.222 70.8129C300.163 70.87 300.161 70.9645 300.218 71.0231C300.27 71.0769 301.387 72.2141 303.317 72.1Z" fill="#263238"/>
<path d="M298.812 64.2366C298.915 64.2309 299.012 64.1706 299.062 64.0704C299.653 62.8827 300.734 62.7353 300.746 62.7344C300.908 62.7141 301.025 62.5666 301.007 62.4037C300.988 62.2416 300.84 62.1259 300.679 62.1455C300.622 62.152 299.267 62.3361 298.533 63.8097C298.46 63.9572 298.52 64.1348 298.665 64.2065C298.713 64.2309 298.762 64.2399 298.812 64.2366Z" fill="#263238"/>
<path d="M308.528 62.2154C308.585 62.2122 308.641 62.1926 308.689 62.1568C308.82 62.0582 308.849 61.8725 308.752 61.7413C307.779 60.4282 306.419 60.5153 306.357 60.5113C306.195 60.5227 306.07 60.6644 306.08 60.8273C306.089 60.9903 306.228 61.1133 306.39 61.1035C306.446 61.0978 307.495 61.044 308.276 62.0981C308.336 62.1796 308.433 62.2212 308.528 62.2154Z" fill="#263238"/>
<path d="M299.904 59.0546C299.904 59.0546 297.992 58.1919 297.487 59.6297C296.982 61.0675 297.708 64.5036 297.708 64.5036L297.25 63.9619C297.25 63.9619 296.617 72.056 293.107 70.7428C289.597 69.4296 283.461 62.5566 289.979 57.141C289.979 57.141 290.388 55.1346 295.035 53.2683C299.681 51.402 306.104 53.2227 307.734 56.2148C309.365 59.2069 308.315 61.2606 308.315 61.2606C307.824 60.1568 307.014 59.5531 307.014 59.5531C307.107 60.6073 306.1 61.2589 306.1 61.2589C305.876 59.9955 305.334 59.4546 305.334 59.4546C305.378 60.1543 304.832 61.1482 304.832 61.1482C303.831 57.9337 301.466 57.7056 300.765 57.8717C299.903 58.0795 299.904 59.0546 299.904 59.0546Z" fill="#263238"/>
<path d="M289.922 71.3164C290.698 72.7925 292.085 73.7643 293.403 74.1407C295.385 74.706 296.405 72.9261 295.878 71.041C295.403 69.345 293.8 67.007 291.799 67.2702C289.827 67.5308 289.034 69.6293 289.922 71.3164Z" fill="#263238"/>
<path opacity="0.6" d="M289.922 71.3164C290.698 72.7925 292.085 73.7643 293.403 74.1407C295.385 74.706 296.405 72.9261 295.878 71.041C295.403 69.345 293.8 67.007 291.799 67.2702C289.827 67.5308 289.034 69.6293 289.922 71.3164Z" fill="white"/>
<path d="M306.655 90.5007L305.903 93.4008C305.903 93.4008 309.247 111.591 309.858 121.166L308.408 123.636L306.269 121.488C306.269 121.488 305.741 96.7847 304.882 93.4545L302.357 91.1989L304.291 89.5875L306.655 90.5007Z" fill="#263238"/>
<path d="M304.345 89.3186L293.334 84.1628L290.239 87.9492L299.755 95.012L304.738 90.2856L310.36 93.8846L309.464 86.9814L303.001 84.1628L304.345 89.3186Z" fill="#263238"/>
<path opacity="0.9" d="M304.345 89.3186L293.334 84.1628L290.239 87.9492L299.755 95.012L304.738 90.2856L310.36 93.8846L309.464 86.9814L303.001 84.1628L304.345 89.3186Z" fill="white"/>
<path d="M314.762 137.956L296.864 138.932L296.721 136.795L314.591 136.059L314.762 137.956Z" fill="black"/>
<path d="M295.81 136.832L296.011 138.978L286.909 139.474L286.826 137.202L295.81 136.832Z" fill="black"/>
<path d="M315.657 136.015L320.054 135.834L320.301 137.654L315.81 137.899L315.657 136.015Z" fill="black"/>
<path d="M309.082 136.49L309.244 138.218C309.268 138.475 309.071 138.699 308.813 138.708L305.249 138.83C305.009 138.838 304.806 138.656 304.787 138.418L304.652 136.711C304.631 136.458 304.826 136.239 305.08 136.228L308.617 136.085C308.856 136.075 309.06 136.253 309.082 136.49Z" fill="white"/>
<path d="M324.022 140.387L322.466 136.33C321.692 134.56 318.884 136.197 318.884 136.197C318.612 136.372 318.48 136.647 318.547 136.902L320.646 144.73C320.869 145.559 321.951 145.805 322.537 145.148L323.296 144.296C324.248 143.23 324.527 141.723 324.022 140.387Z" fill="#263238"/>
<path opacity="0.6" d="M324.022 140.387L322.466 136.33C321.692 134.56 318.884 136.197 318.884 136.197C318.612 136.372 318.48 136.647 318.547 136.902L320.646 144.73C320.869 145.559 321.951 145.805 322.537 145.148L323.296 144.296C324.248 143.23 324.527 141.723 324.022 140.387Z" fill="white"/>
<path d="M272.79 167.997C272.76 169.391 275.539 170.582 278.996 170.657C282.453 170.732 285.281 169.663 285.311 168.27C285.341 166.876 282.563 165.685 279.105 165.61C275.648 165.535 272.82 166.604 272.79 167.997Z" stroke="#263238" stroke-miterlimit="10"/>
<path d="M263.275 168.388L262.794 190.541C262.779 191.266 263.351 191.873 264.085 191.889L296.402 192.592C297.127 192.607 297.734 192.026 297.75 191.301L298.231 169.148C298.247 168.415 297.665 167.817 296.94 167.8L264.623 167.098C263.89 167.083 263.291 167.656 263.275 168.388Z" fill="#263238"/>
<path opacity="0.1" d="M263.275 168.388L262.794 190.541C262.779 191.266 263.351 191.873 264.085 191.889L296.402 192.592C297.127 192.607 297.734 192.026 297.75 191.301L298.231 169.148C298.247 168.415 297.665 167.817 296.94 167.8L264.623 167.098C263.89 167.083 263.291 167.656 263.275 168.388Z" fill="white"/>
<path opacity="0.2" d="M295.054 169.079L294.573 191.232C294.557 191.957 295.139 192.564 295.864 192.58L296.401 192.592C297.126 192.607 297.734 192.025 297.75 191.301L298.231 169.148C298.247 168.415 297.665 167.816 296.94 167.8L296.402 167.789C295.677 167.772 295.07 168.346 295.054 169.079Z" fill="white"/>
<path d="M296.049 167.799C295.37 167.784 294.8 168.411 294.785 169.09L294.562 179.361C294.55 179.938 294.071 180.396 293.493 180.384L263.806 179.739C263.228 179.726 262.769 179.247 262.782 178.67L263.007 168.366C263.022 167.644 263.62 167.072 264.341 167.087L296.671 167.79L296.049 167.799Z" fill="#263238"/>
<path opacity="0.2" d="M296.049 167.799C295.37 167.784 294.8 168.411 294.785 169.09L294.562 179.361C294.55 179.938 294.071 180.396 293.493 180.384L263.806 179.739C263.228 179.726 262.769 179.247 262.782 178.67L263.007 168.366C263.022 167.644 263.62 167.072 264.341 167.087L296.671 167.79L296.049 167.799Z" fill="white"/>
<path d="M276.84 184.965L279.243 185.017C279.458 185.022 279.636 184.851 279.641 184.637L279.77 178.689L276.589 178.62L276.459 184.568C276.455 184.783 276.625 184.96 276.84 184.965Z" fill="#263238"/>
<path d="M276.689 183.297L279.468 183.357C279.801 183.364 280.078 183.1 280.086 182.766L280.114 181.438C280.121 181.104 279.857 180.828 279.523 180.82L276.745 180.76C276.411 180.753 276.135 181.017 276.127 181.351L276.099 182.68C276.091 183.013 276.355 183.289 276.689 183.297Z" stroke="white" stroke-width="0.5" stroke-miterlimit="10"/>
<path d="M276.172 158.317L275.48 164.564L282.063 162.267C282.063 162.267 282.344 156.655 279.447 156.633L276.172 158.317Z" fill="#263238"/>
<path d="M276.794 167.373L282.326 167.088L282.063 162.268L275.48 164.564L276.794 167.373Z" fill="#263238"/>
<g opacity="0.6">
<path d="M276.172 158.317L275.48 164.564L282.063 162.267C282.063 162.267 282.344 156.655 279.447 156.633L276.172 158.317Z" fill="white"/>
<path d="M276.794 167.373L282.326 167.088L282.063 162.268L275.48 164.564L276.794 167.373Z" fill="white"/>
</g>
<path d="M281.914 89.6299C279.533 92.446 273.302 115.834 272.443 122.831C271.584 129.829 275.666 158.833 275.666 158.833L281.914 157.866C281.914 157.866 279.962 127.589 280.821 125.593C281.681 123.598 287.108 102.129 287.108 102.129C287.108 102.129 287.672 97.9928 286.825 95.1115C285.978 92.231 281.914 89.6299 281.914 89.6299Z" fill="#263238"/>
<path opacity="0.8" d="M281.914 89.6299C279.533 92.446 273.302 115.834 272.443 122.831C271.584 129.829 275.666 158.833 275.666 158.833L281.914 157.866C281.914 157.866 279.962 127.589 280.821 125.593C281.681 123.598 287.108 102.129 287.108 102.129C287.108 102.129 287.672 97.9928 286.825 95.1115C285.978 92.231 281.914 89.6299 281.914 89.6299Z" fill="white"/>
<path d="M216.498 22.488H191.288L129.279 275.28H278.507L216.498 22.488Z" fill="#407BFF"/>
<path opacity="0.7" d="M216.498 22.488H191.288L129.279 275.28H278.507L216.498 22.488Z" fill="white"/>
<path opacity="0.2" d="M214.831 22.488H192.954L139.145 275.28H268.64L214.831 22.488Z" fill="white"/>
<path opacity="0.1" d="M194.273 4.61357C194.273 6.57926 193.137 8.17428 191.752 8.17428C191.636 8.17428 191.52 8.16044 191.404 8.13274C190.179 7.9022 189.232 6.41145 189.232 4.61357C189.232 2.8157 190.179 1.32576 191.404 1.0944C191.52 1.06671 191.636 1.05286 191.752 1.05286C193.138 1.05286 194.273 2.64789 194.273 4.61357Z" fill="white"/>
<path opacity="0.1" d="M193.558 4.61365C193.558 6.41152 192.619 7.89495 191.404 8.13282C190.179 7.90228 189.232 6.41152 189.232 4.61365C189.232 2.81578 190.179 1.32584 191.404 1.09448C192.619 1.33235 193.558 2.81578 193.558 4.61365Z" fill="white"/>
<path opacity="0.1" d="M192.001 4.61344C192.001 5.47938 191.585 6.18158 191.073 6.18158C190.56 6.18158 190.145 5.47938 190.145 4.61344C190.145 3.7475 190.56 3.04529 191.073 3.04529C191.585 3.04529 192.001 3.7475 192.001 4.61344Z" fill="white"/>
<path d="M310.094 22.9629V2.14185L287.972 2.14185V22.9629L310.094 22.9629Z" fill="#92989B"/>
<path d="M301.564 12.5523L307.102 6.09076C307.622 5.4853 307.622 4.50391 307.102 3.89721C306.583 3.29175 305.742 3.29175 305.222 3.89721L299.684 10.3588L294.145 3.89721C293.626 3.29175 292.785 3.29175 292.265 3.89721C291.746 4.50267 291.746 5.48406 292.265 6.09076L297.804 12.5523L292.265 19.0139C291.746 19.6193 291.746 20.6007 292.265 21.2074C292.525 21.5101 292.866 21.6615 293.205 21.6615C293.545 21.6615 293.886 21.5101 294.145 21.2074L299.684 14.7459L305.222 21.2074C305.482 21.5101 305.822 21.6615 306.163 21.6615C306.503 21.6615 306.843 21.5101 307.102 21.2074C307.622 20.602 307.622 19.6206 307.102 19.0139L301.564 12.5523Z" fill="white"/>
<path d="M110.612 22.9629V2.14185L88.4895 2.14185V22.9629L110.612 22.9629Z" fill="#92989B"/>
<path d="M102.081 12.5523L107.62 6.09076C108.139 5.4853 108.139 4.50391 107.62 3.89721C107.1 3.29175 106.259 3.29175 105.74 3.89721L100.201 10.3588L94.6631 3.89721C94.1437 3.29175 93.3024 3.29175 92.7831 3.89721C92.2637 4.50267 92.2637 5.48406 92.7831 6.09076L98.3215 12.5523L92.7831 19.0139C92.2637 19.6193 92.2637 20.6007 92.7831 21.2074C93.0427 21.5101 93.3832 21.6615 93.7225 21.6615C94.0629 21.6615 94.4034 21.5101 94.6631 21.2074L100.201 14.7459L105.74 21.2074C106 21.5101 106.34 21.6615 106.68 21.6615C107.021 21.6615 107.36 21.5101 107.62 21.2074C108.139 20.602 108.139 19.6206 107.62 19.0139L102.081 12.5523Z" fill="white"/>
<path d="M216.651 24.4617V0L190.661 0V24.4617L216.651 24.4617Z" fill="#1F2DCD"/>
<path d="M203.28 20.7874C202.833 20.7874 202.409 20.5539 202.119 20.1491L195.623 11.0433C195.079 10.2807 195.158 9.13951 195.799 8.49156C196.438 7.84637 197.398 7.93754 197.943 8.70016L203.28 16.1799L212.093 3.82881C212.637 3.06481 213.599 2.97363 214.237 3.62019C214.878 4.26676 214.957 5.40931 214.412 6.17193L204.44 20.1505C204.151 20.5539 203.727 20.7874 203.28 20.7874Z" fill="white"/>
<path d="M187.664 265.255L188.304 266.14L189.574 265.597L190.366 269.481L195.724 276.904C195.724 276.904 197.763 277.229 196.157 273.01C196.084 272.818 196.025 272.607 195.987 272.372C195.511 269.849 196.56 265.011 196.56 265.011L193.62 260.938C193.62 260.938 193.313 260.943 192.792 261.028C191.574 261.229 189.139 261.818 187.664 265.255Z" fill="#DF1242"/>
<path opacity="0.2" d="M187.664 265.255L188.304 266.14L189.574 265.597L190.366 269.481L195.724 276.904C195.724 276.904 197.763 277.229 196.157 273.01C196.084 272.818 196.025 272.607 195.987 272.372C195.511 269.849 196.56 265.011 196.56 265.011L193.62 260.938C193.62 260.938 193.313 260.943 192.792 261.028C191.574 261.229 189.139 261.818 187.664 265.255Z" fill="black"/>
<path d="M192.792 261.027C192.785 261.031 192.779 261.036 192.779 261.036C193.767 261.141 192.901 265.49 193.298 267.929C193.657 270.105 194.602 272.158 195.987 272.371C195.511 269.848 197.23 264.098 197.23 264.098L194.866 260.822C194.866 260.822 193.313 260.943 192.792 261.027Z" fill="#EBB376"/>
<path opacity="0.2" d="M192.792 261.027C192.785 261.031 192.779 261.036 192.779 261.036C193.767 261.141 192.901 265.49 193.298 267.929C193.657 270.105 194.602 272.158 195.987 272.371C195.511 269.848 197.23 264.098 197.23 264.098L194.866 260.822C194.866 260.822 193.313 260.943 192.792 261.027Z" fill="black"/>
<path d="M195.866 276.628L196.958 276.627L197.261 275.279L200.873 276.911H210.029C210.029 276.911 211.485 275.447 207.125 274.281C206.927 274.228 206.721 274.152 206.507 274.045C204.182 272.955 200.874 269.273 200.874 269.273H195.85C195.85 269.273 195.675 269.525 195.439 269.997C194.891 271.102 193.943 273.421 195.866 276.628Z" fill="#DF1242"/>
<path d="M195.438 269.996C195.438 270.004 195.438 270.012 195.438 270.012C196.102 269.272 199.121 272.52 201.331 273.626C203.305 274.609 205.524 275.043 206.507 274.045C204.182 272.955 200.526 268.195 200.526 268.195H196.486C196.486 268.195 195.675 269.524 195.438 269.996Z" fill="#EBB376"/>
<path d="M235.597 105.92L233.418 100.155L240.23 100.733C240.23 100.733 241.862 105.994 239.117 106.721L235.597 105.92Z" fill="#EBB376"/>
<path d="M234.546 94.1559L240.234 96.6413L240.23 100.733L233.418 100.155L234.546 94.1559Z" fill="#EBB376"/>
<path d="M239.929 106.036C239.929 106.036 239.642 131.729 233.931 131.729C230.768 131.729 227.183 129.669 224.131 127.336C220.122 124.269 217.031 120.715 217.031 120.715L217.015 120.627L215.05 108.695C220.664 108.559 230.464 121.426 230.464 121.426L235.192 105.126L239.929 106.036Z" fill="#DF1242"/>
<path opacity="0.2" d="M224.131 127.336C220.122 124.269 217.031 120.714 217.031 120.714L217.015 120.626L218.843 116.537C218.843 116.537 223.756 120.635 224.131 127.336Z" fill="black"/>
<path d="M191.99 80.2041C191.99 80.2041 193.772 77.1232 198.882 76.5969C203.993 76.0707 210.765 78.8013 211.802 86.5988C212.839 94.3964 215.051 98.674 215.051 98.674C215.051 98.674 198.594 102.975 193.974 101.424C189.353 99.8731 182.198 82.4426 191.99 80.2041Z" fill="#263238"/>
<path d="M223.54 217.254C221.088 221.774 218.613 226.638 216.232 231.51C213.102 237.939 210.146 244.384 207.623 250.151C204.963 256.229 202.798 261.54 201.449 265.229C200.171 265.373 196.314 263.073 195.204 260.988C195.204 260.988 197.935 243.21 204.189 226.11C206.681 219.298 209.732 212.596 213.397 207.174C198.414 164.54 202.088 148.559 202.088 148.559L219.451 147.784C219.451 147.784 222.079 163.662 224.179 179.947C224.179 179.947 224.179 179.947 224.179 179.955C225.273 188.493 226.224 197.143 226.575 203.676V203.74C226.831 208.444 225.785 213.117 223.54 217.254Z" fill="#263238"/>
<path opacity="0.2" d="M209.225 194.493C207.028 187.247 205.443 180.972 204.325 175.59C205.435 171.381 207.012 167.777 209.155 165.61C209.155 165.61 212.24 177.337 209.225 194.493Z" fill="black"/>
<path opacity="0.2" d="M207.623 250.151C204.963 256.229 202.798 261.541 201.449 265.23C200.171 265.373 196.314 263.074 195.204 260.989C195.204 260.989 197.935 243.211 204.189 226.111C205.458 233.171 206.88 242.092 207.623 250.151Z" fill="black"/>
<path d="M212.828 145.858C212.828 145.858 207.773 184.972 204.877 203.796C201.834 223.565 201.448 255.287 202.209 268.214C201.101 268.857 197.064 269.635 194.884 268.954C194.884 268.954 184.575 228.971 191.422 205.749C185.187 160.007 194.211 148.806 194.211 148.806L212.828 145.858Z" fill="#263238"/>
<path opacity="0.7" d="M211.144 121.23C203.708 114.25 194.372 109.538 194.372 109.538C194.922 109.474 195.489 109.418 196.057 109.37C200.33 109.019 203.828 108.763 207.638 108.979C208.597 109.035 209.578 109.115 210.545 109.195V109.203C212.941 114.689 211.144 121.23 211.144 121.23Z" fill="white"/>
<path d="M194.372 145.858C193.845 139.923 191.721 129.049 188.063 117.628C186.873 113.914 188.891 109.721 188.891 109.721C188.891 109.721 193.869 109.593 194.372 109.538C194.923 109.474 195.49 109.418 196.058 109.37C200.331 109.019 203.829 108.763 207.639 108.979C208.597 109.035 209.579 109.115 210.546 109.195C210.857 109.227 214.358 109.258 214.661 109.291C214.661 109.291 219.508 114.834 219.803 119.322C219.963 121.83 220.339 123.723 220.203 129.721C220.179 133.794 219.884 139.169 219.613 144.895L194.372 145.858Z" fill="#DF1242"/>
<path opacity="0.8" d="M194.372 145.858C193.845 139.923 191.721 129.049 188.063 117.628C186.873 113.914 188.891 109.721 188.891 109.721C188.891 109.721 193.869 109.593 194.372 109.538C194.923 109.474 195.49 109.418 196.058 109.37C200.331 109.019 203.829 108.763 207.639 108.979C208.597 109.035 209.579 109.115 210.546 109.195C210.857 109.227 214.358 109.258 214.661 109.291C214.661 109.291 219.508 114.834 219.803 119.322C219.963 121.83 220.339 123.723 220.203 129.721C220.179 133.794 219.884 139.169 219.613 144.895L194.372 145.858Z" fill="white"/>
<path d="M194.372 145.858L219.647 144.154C219.647 144.154 220.407 151.743 220.23 151.634C220.054 151.526 193.176 152.582 193.176 152.582L194.372 145.858Z" fill="#263238"/>
<path d="M194.601 146.275L219.611 144.894V147.264L194.373 148.606L194.601 146.275Z" fill="black"/>
<path d="M208.201 147.589L208.093 146.199C208.072 145.934 208.27 145.704 208.534 145.682L211.274 145.469C211.553 145.447 211.791 145.668 211.791 145.948V147.411C211.791 147.667 211.592 147.877 211.337 147.891L208.706 148.031C208.445 148.045 208.221 147.849 208.201 147.589Z" stroke="white" stroke-width="0.5" stroke-miterlimit="10"/>
<path d="M196.425 163.22L187.688 161.639L192.775 142.847C192.775 142.847 191.473 138.182 190.035 132.831C189.34 130.227 188.614 127.464 187.999 125.004C187.104 121.458 186.433 118.519 186.386 117.561C186.226 114.565 188.893 109.718 188.893 109.718L195.202 108.695C195.202 108.695 200.953 115.044 201.328 127.208C201.705 139.364 196.425 163.22 196.425 163.22Z" fill="#DF1242"/>
<path d="M209.606 108.699C209.606 108.699 215.083 118.248 216.346 125.304C217.61 132.36 221.086 162.377 221.086 162.377L222.981 161.428L220.348 143.524C220.348 143.524 221.297 122.769 220.559 118.507C219.822 114.245 215.051 108.698 215.051 108.698L209.606 108.699Z" fill="#DF1242"/>
<path d="M206.889 108.246L207.263 107.912C207.263 107.912 212.608 108.564 217.505 114.683L215.61 116.536L218.849 119.143L217.307 131.73C217.307 131.73 212.372 114.956 210.239 110.928C210.239 110.928 208.457 109.02 206.889 108.246Z" fill="#DF1242"/>
<path opacity="0.2" d="M206.889 108.246L207.263 107.935C207.263 107.935 212.608 108.564 217.505 114.683L215.61 116.536L218.849 119.143L217.307 131.73C217.307 131.73 212.372 114.957 210.239 110.928C210.239 110.928 208.457 109.02 206.889 108.246Z" fill="black"/>
<path d="M196.427 108.699C196.427 108.699 202.529 115.432 201.17 133.125L195.203 120.406L197.362 116.931L192.307 112.192C192.307 112.192 194.958 107.166 196.832 107.664L196.427 108.699Z" fill="#DF1242"/>
<path opacity="0.2" d="M196.427 108.699C196.427 108.699 202.529 115.432 201.17 133.125L195.203 120.406L197.362 116.931L192.307 112.192C192.307 112.192 194.958 107.166 196.832 107.664L196.427 108.699Z" fill="black"/>
<path d="M209.133 110.611L207.727 118.997L196.697 109.35C199.029 106.778 197.559 99.9969 196.425 96.2993L199.549 98.6397L204.197 102.114C204.085 102.889 204.189 103.951 204.421 104.973C204.772 106.451 205.403 107.841 206.098 108.136L209.133 110.611Z" fill="#EBB376"/>
<path opacity="0.2" d="M204.421 104.974C202.567 104.558 200.14 102.641 199.748 100.749C199.588 99.9505 199.517 99.1677 199.548 98.6406L204.197 102.115C204.085 102.889 204.188 103.951 204.421 104.974Z" fill="black"/>
<path d="M197.242 107.229C197.242 107.229 201.961 110.875 207.5 118.564C207.5 118.564 207.996 110.888 206.097 108.139L206.493 107.667C206.493 107.667 210.546 109.194 213.793 113.456L210.133 112.298L207.635 119.065L200.102 112.849L195.037 113.727C195.037 113.727 195.294 108.73 197.242 107.229Z" fill="#DF1242"/>
<path opacity="0.7" d="M197.242 107.229C197.242 107.229 201.961 110.875 207.5 118.564C207.5 118.564 207.996 110.888 206.097 108.139L206.493 107.667C206.493 107.667 210.546 109.194 213.793 113.456L210.133 112.298L207.635 119.065L200.102 112.849L195.037 113.727C195.037 113.727 195.294 108.73 197.242 107.229Z" fill="white"/>
<path d="M192.989 88.9327C194.325 94.9113 194.763 97.4626 198.296 100.232C203.608 104.396 210.625 101.858 211.094 95.6998C211.516 90.1579 209.26 81.3128 202.993 79.5377C196.817 77.7887 191.653 82.9542 192.989 88.9327Z" fill="#EBB376"/>
<path d="M200.708 89.6724C200.798 90.1791 201.135 90.5611 201.46 90.5261C201.785 90.4911 201.976 90.052 201.886 89.5453C201.795 89.0386 201.458 88.6565 201.133 88.6916C200.807 88.7266 200.617 89.1657 200.708 89.6724Z" fill="#263238"/>
<path d="M207.018 88.7935C207.109 89.3001 207.446 89.6822 207.771 89.6472C208.096 89.6122 208.286 89.1731 208.196 88.6664C208.106 88.1597 207.768 87.7776 207.443 87.8127C207.118 87.8477 206.928 88.2868 207.018 88.7935Z" fill="#263238"/>
<path d="M207.304 87.8565L208.437 87.3767C208.437 87.3767 207.993 88.3925 207.304 87.8565Z" fill="#263238"/>
<path d="M205.284 90.1155C205.284 90.1155 206.518 92.205 207.634 93.1573C207.089 93.8521 205.921 93.6876 205.921 93.6876L205.284 90.1155Z" fill="#D58745"/>
<path d="M199.206 86.5987C199.284 86.5971 199.359 86.5645 199.412 86.5018C200.232 85.5185 201.321 85.6855 201.334 85.688C201.495 85.7132 201.641 85.6049 201.656 85.4411C201.671 85.2782 201.55 85.1243 201.387 85.0966C201.33 85.0876 199.964 84.8758 198.945 86.0969C198.844 86.2183 198.866 86.4081 198.995 86.5197C199.057 86.5743 199.133 86.6004 199.206 86.5987Z" fill="#263238"/>
<path d="M209.018 85.178C209.093 85.1861 209.167 85.1674 209.226 85.1185C209.348 85.0183 209.36 84.8301 209.251 84.699C208.161 83.3842 206.803 83.4713 206.745 83.4762C206.583 83.4884 206.471 83.6318 206.496 83.7964C206.52 83.9609 206.671 84.0839 206.832 84.0725C206.885 84.0685 207.94 84.0163 208.807 85.0623C208.863 85.1299 208.94 85.1698 209.018 85.178Z" fill="#263238"/>
<path d="M200.993 88.7354L202.125 88.2556C202.125 88.2556 201.682 89.2715 200.993 88.7354Z" fill="#263238"/>
<path d="M196.057 92.3948C196.057 92.3948 198.996 88.1131 196.755 81.7753C196.755 81.7753 203.401 78.5535 208.436 83.473C208.436 83.473 203.755 75.2576 193.973 79.1922C184.192 83.1268 191.567 92.5178 192.777 93.299C193.987 94.0802 196.057 92.3948 196.057 92.3948Z" fill="#263238"/>
<path d="M191.795 94.0999C192.67 95.2485 193.932 95.8774 195.031 96.0069C196.685 96.2016 197.159 94.5325 196.405 92.9985C195.727 91.6177 194.048 89.8533 192.531 90.3697C191.036 90.8781 190.795 92.7867 191.795 94.0999Z" fill="#EBB376"/>
<path d="M206.268 95.0773C205.874 95.8993 205.472 97.4446 205.472 97.4446C205.325 97.4332 205.178 97.4226 205.033 97.4031C203.048 97.201 202.194 96.4516 201.85 95.6826C201.663 95.2606 201.633 94.8288 201.654 94.481C201.675 94.0786 201.781 93.7959 201.781 93.7959C202.77 94.5315 204.605 94.8622 205.592 94.9975C206.006 95.0594 206.268 95.0773 206.268 95.0773Z" fill="#263238"/>
<path d="M205.593 94.9983L205.34 95.6899C203.471 95.4952 202.181 95.1074 201.654 94.481C201.675 94.0786 201.781 93.7959 201.781 93.7959C202.77 94.5315 204.606 94.8623 205.593 94.9983Z" fill="white"/>
<path d="M205.033 97.4031C203.048 97.2011 202.195 96.4516 201.85 95.6826C202.524 95.7771 203.325 95.9669 204.009 96.3433C204.533 96.63 204.841 97.0202 205.033 97.4031Z" fill="#DE5753"/>
<path opacity="0.2" d="M191.195 131.385C190.931 132.056 190.524 132.519 190.037 132.831C189.342 130.227 188.615 127.464 188 125.004C189.613 123.056 190.979 121.426 190.979 121.426C190.979 121.426 192.84 127.2 191.195 131.385Z" fill="black"/>
<path d="M188.893 109.721C185.435 110.139 174.85 136.427 175.482 140.581C176.114 144.736 198.882 142.845 198.882 142.845V136.52L185.593 133.843L190.193 124.822C190.193 124.822 191.578 120.614 191.193 116.719C190.806 112.824 188.893 109.721 188.893 109.721Z" fill="#DF1242"/>
<path d="M202.924 152.51L185.456 150.39C184.783 150.309 184.32 149.712 184.422 149.059L187.49 126.595C187.592 125.942 188.22 125.477 188.894 125.56L206.362 127.679C207.035 127.761 207.498 128.357 207.396 129.01L204.328 151.475C204.225 152.128 203.597 152.591 202.924 152.51Z" fill="#263238"/>
<path opacity="0.6" d="M202.924 152.51L185.456 150.39C184.783 150.309 184.32 149.712 184.422 149.059L187.49 126.595C187.592 125.942 188.22 125.477 188.894 125.56L206.362 127.679C207.035 127.761 207.498 128.357 207.396 129.01L204.328 151.475C204.225 152.128 203.597 152.591 202.924 152.51Z" fill="white"/>
<path opacity="0.2" d="M202.194 152.421L185.456 150.39C184.783 150.309 184.32 149.712 184.422 149.059L187.49 126.595C187.592 125.942 188.22 125.477 188.894 125.56L205.632 127.591C206.305 127.672 206.768 128.268 206.666 128.922L203.598 151.386C203.495 152.039 202.867 152.503 202.194 152.421Z" fill="white"/>
<path d="M195.5 137.117C194.458 136.991 193.485 137.709 193.327 138.721C193.169 139.733 193.886 140.656 194.928 140.782C195.97 140.909 196.942 140.191 197.1 139.178C196.058 139.053 195.342 138.129 195.5 137.117Z" fill="#263238"/>
<path opacity="0.3" d="M201.434 128.894L192.207 127.775C191.757 127.72 191.393 127.404 191.29 126.977L191.009 125.816L203.188 127.294L202.562 128.345C202.331 128.731 201.884 128.948 201.434 128.894Z" fill="black"/>
<path d="M203.751 135.746L198.554 137.234L197.465 140.676C197.963 143.472 203.342 142.278 203.342 142.278L204.444 142.972C205.338 143.536 206.519 143.012 206.702 141.971L207.273 138.718C207.368 138.176 207.156 137.627 206.723 137.289L205.076 136.004C204.701 135.711 204.208 135.615 203.751 135.746Z" fill="#EBB376"/>
<path d="M178.307 129.727C176.484 134.719 175.255 139.086 175.482 140.581C176.114 144.735 198.882 142.845 198.882 142.845V136.52L185.593 133.843L178.307 129.727Z" fill="#DF1242"/>
<path d="M227.977 62.0045H217.986C216.088 62.0045 214.55 63.5425 214.55 65.4398V75.1493C214.55 77.0465 216.088 78.5845 217.986 78.5845H220.336L219.764 82.2112L222.647 78.5845H227.977C229.874 78.5845 231.412 77.0465 231.412 75.1493V65.4398C231.412 63.5425 229.874 62.0045 227.977 62.0045Z" fill="#DF1242"/>
<path d="M219.511 68.3496C220.379 66.8996 222.078 67.4299 222.968 68.537C223.828 67.4079 225.513 66.8328 226.417 68.2608C227.942 70.6672 224.893 72.9547 223.451 73.8532C223.287 73.9567 223.152 74.0414 223.039 74.1082C222.925 74.0438 222.788 73.9632 222.621 73.8638C221.157 73.0019 218.049 70.7943 219.511 68.3496Z" fill="white"/>
<path d="M113.051 105.632C113.302 105.87 113.546 106.123 113.776 106.383C113.946 106.598 114.112 106.819 114.272 107.043C114.539 107.445 114.787 107.854 114.958 108.199C115.341 108.931 115.574 109.564 115.816 110.203C116.259 111.452 116.577 112.621 116.86 113.776C117.402 116.083 117.771 118.317 118.071 120.552C118.376 122.782 118.598 124.999 118.778 127.214C118.87 128.321 118.953 129.428 119.011 130.537L119.177 133.8C119.302 135.778 119.505 137.891 119.779 139.997C120.044 142.109 120.319 144.237 120.625 146.37C121.23 150.632 121.828 154.942 122.39 159.236L122.393 159.255C122.547 160.43 121.719 161.508 120.544 161.661C119.521 161.795 118.573 161.185 118.242 160.251C116.767 156.093 115.457 151.918 114.312 147.664C113.736 145.54 113.2 143.397 112.709 141.227C112.231 139.051 111.773 136.864 111.473 134.516L111.06 131.283L110.628 128.118C110.327 126.013 109.996 123.917 109.642 121.849C109.271 119.79 108.888 117.738 108.411 115.818C108.18 114.861 107.922 113.931 107.639 113.13C107.499 112.754 107.347 112.367 107.226 112.135C107.165 111.987 107.122 111.936 107.101 111.879C107.1 111.884 107.105 111.885 107.115 111.881C107.158 111.943 107.215 111.999 107.28 112.039C105.51 110.446 105.367 107.72 106.96 105.951C108.555 104.183 111.281 104.04 113.051 105.632Z" fill="#263238"/>
<g opacity="0.7">
<path d="M113.051 105.632C113.302 105.87 113.546 106.123 113.776 106.383C113.946 106.598 114.112 106.819 114.272 107.043C114.539 107.445 114.787 107.854 114.958 108.199C115.341 108.931 115.574 109.564 115.816 110.203C116.259 111.452 116.577 112.621 116.86 113.776C117.402 116.083 117.771 118.317 118.071 120.552C118.376 122.782 118.598 124.999 118.778 127.214C118.87 128.321 118.953 129.428 119.011 130.537L119.177 133.8C119.302 135.778 119.505 137.891 119.779 139.997C120.044 142.109 120.319 144.237 120.625 146.37C121.23 150.632 121.828 154.942 122.39 159.236L122.393 159.255C122.547 160.43 121.719 161.508 120.544 161.661C119.521 161.795 118.573 161.185 118.242 160.251C116.767 156.093 115.457 151.918 114.312 147.664C113.736 145.54 113.2 143.397 112.709 141.227C112.231 139.051 111.773 136.864 111.473 134.516L111.06 131.283L110.628 128.118C110.327 126.013 109.996 123.917 109.642 121.849C109.271 119.79 108.888 117.738 108.411 115.818C108.18 114.861 107.922 113.931 107.639 113.13C107.499 112.754 107.347 112.367 107.226 112.135C107.165 111.987 107.122 111.936 107.101 111.879C107.1 111.884 107.105 111.885 107.115 111.881C107.158 111.943 107.215 111.999 107.28 112.039C105.51 110.446 105.367 107.72 106.96 105.951C108.555 104.183 111.281 104.04 113.051 105.632Z" fill="white"/>
</g>
<path d="M123.055 158.873L126.117 164.221L119.301 164.727C119.301 164.727 116.857 159.79 119.453 158.637L123.055 158.873Z" fill="#263238"/>
<path d="M125.952 170.323L119.944 168.768L119.301 164.727L126.118 164.222L125.952 170.323Z" fill="#263238"/>
<path d="M84.9718 113.568C82.4131 115.61 79.7428 117.847 77.3559 120.072C76.1649 121.195 75.0228 122.343 74.0681 123.467C73.5924 124.026 73.1826 124.592 72.8763 125.068C72.5635 125.517 72.4299 125.986 72.4307 125.766C72.4079 125.467 72.3305 125.384 72.3639 125.529C72.3924 125.655 72.4869 125.888 72.6148 126.148C72.8779 126.675 73.2828 127.296 73.7365 127.911C74.6571 129.147 75.7356 130.432 76.8769 131.673C79.153 134.168 81.6229 136.677 84.0603 139.126L84.1002 139.166C84.9376 140.008 84.9344 141.37 84.0928 142.207C83.3915 142.905 82.3259 143.018 81.5064 142.549C78.3229 140.724 75.3357 138.733 72.4405 136.418C71.0068 135.245 69.5771 134.035 68.2134 132.576C67.5299 131.841 66.8522 131.062 66.1874 130.086C65.8551 129.593 65.53 129.045 65.2303 128.352C65.0812 127.996 64.9378 127.616 64.8246 127.141C64.7659 126.918 64.7203 126.645 64.6836 126.381C64.6527 126.102 64.6323 125.762 64.6405 125.539C64.6535 124.538 64.8466 123.74 65.0624 123.055C65.2832 122.369 65.5406 121.782 65.8095 121.242C66.3471 120.165 66.9475 119.276 67.5503 118.438C68.7592 116.77 70.043 115.341 71.3644 113.984C74.0266 111.27 76.7539 108.932 79.7957 106.673C81.7068 105.253 84.4065 105.651 85.8264 107.562C87.2145 109.431 86.8642 112.055 85.0606 113.497L84.9718 113.568Z" fill="#263238"/>
<g opacity="0.7">
<path d="M84.9718 113.568C82.4131 115.61 79.7428 117.847 77.3559 120.072C76.1649 121.195 75.0228 122.343 74.0681 123.467C73.5924 124.026 73.1826 124.592 72.8763 125.068C72.5635 125.517 72.4299 125.986 72.4307 125.766C72.4079 125.467 72.3305 125.384 72.3639 125.529C72.3924 125.655 72.4869 125.888 72.6148 126.148C72.8779 126.675 73.2828 127.296 73.7365 127.911C74.6571 129.147 75.7356 130.432 76.8769 131.673C79.153 134.168 81.6229 136.677 84.0603 139.126L84.1002 139.166C84.9376 140.008 84.9344 141.37 84.0928 142.207C83.3915 142.905 82.3259 143.018 81.5064 142.549C78.3229 140.724 75.3357 138.733 72.4405 136.418C71.0068 135.245 69.5771 134.035 68.2134 132.576C67.5299 131.841 66.8522 131.062 66.1874 130.086C65.8551 129.593 65.53 129.045 65.2303 128.352C65.0812 127.996 64.9378 127.616 64.8246 127.141C64.7659 126.918 64.7203 126.645 64.6836 126.381C64.6527 126.102 64.6323 125.762 64.6405 125.539C64.6535 124.538 64.8466 123.74 65.0624 123.055C65.2832 122.369 65.5406 121.782 65.8095 121.242C66.3471 120.165 66.9475 119.276 67.5503 118.438C68.7592 116.77 70.043 115.341 71.3644 113.984C74.0266 111.27 76.7539 108.932 79.7957 106.673C81.7068 105.253 84.4065 105.651 85.8264 107.562C87.2145 109.431 86.8642 112.055 85.0606 113.497L84.9718 113.568Z" fill="white"/>
</g>
<path d="M90.3599 143.874C90.3599 143.874 90.7338 150.254 93.8513 161.43C95.4219 167.056 97.6858 173.901 100.956 181.752C102.511 185.496 104.295 189.46 106.337 193.637C107.259 195.535 108.242 197.471 109.279 199.453C110.476 233.299 129.465 267.709 129.465 267.709C130.517 268.25 134.191 267.656 134.169 266.589C131.356 262.121 125.821 218.755 122.254 198.188C122.033 195.391 121.713 192.395 121.316 189.3C120.272 180.999 118.732 171.966 117.23 164.022C114.875 151.513 112.626 141.702 112.626 141.702L106.367 142.312L90.3599 143.874Z" fill="#263238"/>
<path opacity="0.7" d="M90.3599 143.874C90.3599 143.874 90.7338 150.254 93.8513 161.43C95.4219 167.056 97.6858 173.901 100.956 181.752C102.511 185.496 104.295 189.46 106.337 193.637C107.259 195.535 108.242 197.471 109.279 199.453C110.476 233.299 129.465 267.709 129.465 267.709C130.517 268.25 134.191 267.656 134.169 266.589C131.356 262.121 125.821 218.755 122.254 198.188C122.033 195.391 121.713 192.395 121.316 189.3C120.272 180.999 118.732 171.966 117.23 164.022C114.875 151.513 112.626 141.702 112.626 141.702L106.367 142.312L90.3599 143.874Z" fill="white"/>
<path d="M82.8977 190.724H82.9051C83.4085 194.36 84.0561 198.248 84.8569 202.402C78.0727 225.042 92.0223 269.217 92.0223 269.217C94.3855 269.682 96.4742 269.377 97.5341 268.584C94.9045 255.274 96.7944 220.666 98.8375 199.985C99.0207 198.11 99.2488 196.044 99.5006 193.841C99.9201 190.114 100.423 185.997 100.956 181.752C101.856 174.639 102.87 167.153 103.785 160.522C104.897 152.503 105.873 145.718 106.369 142.311C106.582 140.809 106.704 139.963 106.704 139.963L87.1134 142.082C87.1134 142.082 82.1361 147.669 81.3809 165.11C81.0982 171.789 81.4265 180.212 82.8977 190.724Z" fill="#263238"/>
<path opacity="0.7" d="M82.8977 190.724H82.9051C83.4085 194.36 84.0561 198.248 84.8569 202.402C78.0727 225.042 92.0223 269.217 92.0223 269.217C94.3855 269.682 96.4742 269.377 97.5341 268.584C94.9045 255.274 96.7944 220.666 98.8375 199.985C99.0207 198.11 99.2488 196.044 99.5006 193.841C99.9201 190.114 100.423 185.997 100.956 181.752C101.856 174.639 102.87 167.153 103.785 160.522C104.897 152.503 105.873 145.718 106.369 142.311C106.582 140.809 106.704 139.963 106.704 139.963L87.1134 142.082C87.1134 142.082 82.1361 147.669 81.3809 165.11C81.0982 171.789 81.4265 180.212 82.8977 190.724Z" fill="white"/>
<path d="M110.269 102.228C116.519 104.314 116.952 108.782 120.53 118.105C116.432 123.963 110.285 124.068 110.285 124.068C110.285 124.068 101.338 107.386 110.269 102.228Z" fill="#263238"/>
<path opacity="0.8" d="M120.534 118.104C119.463 119.637 118.258 120.771 117.052 121.618C115.654 122.6 114.264 123.192 113.107 123.543C111.453 124.054 110.288 124.07 110.288 124.07C110.288 124.07 110.232 123.974 110.144 123.79C109.434 122.393 106.279 115.859 106.302 110.109C106.319 106.906 107.308 103.935 110.272 102.226C116.517 104.31 116.956 108.783 120.534 118.104Z" fill="white"/>
<path opacity="0.1" d="M117.052 121.618C115.654 122.6 114.264 123.192 113.107 123.543C111.757 120.684 110.519 117.401 110.176 114.39C111.981 114.23 113.722 114.917 114.904 116.802C115.942 118.447 116.62 120.076 117.052 121.618Z" fill="black"/>
<path d="M106.506 75.8963C106.506 75.8963 112.311 90.4161 106.506 103.061C100.701 115.705 84.3916 108.111 82.7835 105.085C81.1754 102.059 84.9447 95.8773 84.9447 90.2222C84.9447 84.5671 83.572 81.4854 84.5977 76.8445C85.6225 72.2052 106.506 75.8963 106.506 75.8963Z" fill="#263238"/>
<path opacity="0.2" d="M82.8975 190.724H82.9048C89.0715 192.744 94.6134 193.651 99.4995 193.841C99.919 190.114 100.422 185.997 100.955 181.752C102.51 185.495 104.294 189.459 106.337 193.636C113.068 192.965 118.099 190.991 121.315 189.299C120.271 180.998 118.731 171.965 117.229 164.021C115.399 162.924 113.204 162.001 110.574 161.338C108.517 160.82 106.222 160.553 103.782 160.523C100.633 160.477 97.2487 160.804 93.8493 161.429C89.5652 162.222 85.2582 163.495 81.3782 165.111C81.098 171.789 81.4263 180.212 82.8975 190.724Z" fill="black"/>
<path d="M82.7827 102.702C82.7827 102.702 84.1399 107.733 85.3137 115.791C85.664 118.245 86.007 120.982 86.2815 123.94C86.7923 129.336 87.097 135.48 86.9373 142.036H112.733C112.733 142.036 116.804 111.865 110.081 102.138C110.081 102.138 96.8553 95.9108 82.7827 102.702Z" fill="#263238"/>
<path opacity="0.5" d="M82.7827 102.702C82.7827 102.702 84.1399 107.733 85.3137 115.791C85.664 118.245 86.007 120.982 86.2815 123.94C86.7923 129.336 87.097 135.48 86.9373 142.036H112.733C112.733 142.036 116.804 111.865 110.081 102.138C110.081 102.138 96.8553 95.9108 82.7827 102.702Z" fill="white"/>
<path opacity="0.1" d="M85.3135 115.791C85.6638 118.245 86.0067 120.982 86.2813 123.94C87.4625 121.592 88.8603 115.981 87.0152 110.028L85.3135 115.791Z" fill="black"/>
<path d="M96.1249 97.7592C88.0349 97.7535 87.0166 104.415 87.0166 104.415L90.7989 102.786L101.914 110.22L104.647 102.715L108.075 103.352C108.075 103.352 103.153 97.764 96.1249 97.7592Z" fill="#263238"/>
<path opacity="0.8" d="M96.1249 97.7592C88.0349 97.7535 87.0166 104.415 87.0166 104.415L90.7989 102.786L101.914 110.22L104.647 102.715L108.075 103.352C108.075 103.352 103.153 97.764 96.1249 97.7592Z" fill="white"/>
<path d="M101.554 109.772L91.1221 100.701C93.6555 98.0996 92.3611 90.957 91.3062 87.0582L99.217 93.409C98.6858 96.4378 98.8137 99.6629 103.238 100.702C103.238 100.702 101.544 109.748 101.554 109.772Z" fill="#263238"/>
<path opacity="0.7" d="M101.554 109.772L91.1221 100.701C93.6555 98.0996 92.3611 90.957 91.3062 87.0582L99.217 93.409C98.6858 96.4378 98.8137 99.6629 103.238 100.702C103.238 100.702 101.544 109.748 101.554 109.772Z" fill="white"/>
<path opacity="0.1" d="M94.531 89.6494L99.2127 93.4048C99.084 94.1217 98.9976 94.8491 98.9992 95.5554C97.3203 95.3151 94.9033 93.4928 94.5978 91.7536C94.4455 90.8868 94.4194 90.0527 94.531 89.6494Z" fill="black"/>
<path d="M87.9768 79.2338C89.1596 85.5284 89.527 88.2109 93.1186 91.2299C98.5212 95.7715 105.944 93.3691 106.654 86.9515C107.293 81.175 105.252 71.8517 98.7648 69.7736C92.3749 67.7256 86.7939 72.9392 87.9768 79.2338Z" fill="#263238"/>
<path opacity="0.7" d="M87.9768 79.2338C89.1596 85.5284 89.527 88.2109 93.1186 91.2299C98.5212 95.7715 105.944 93.3691 106.654 86.9515C107.293 81.175 105.252 71.8517 98.7648 69.7736C92.3749 67.7256 86.7939 72.9392 87.9768 79.2338Z" fill="white"/>
<path d="M93.3896 74.6866C89.9161 79.1686 97.0505 84.3235 89.9161 84.0246C82.7816 83.7256 85.68 73.652 89.9161 71.3621C94.1513 69.0722 93.3896 74.6866 93.3896 74.6866Z" fill="#263238"/>
<path d="M97.9486 80.2831C98.0252 80.8158 98.3633 81.2272 98.7046 81.202C99.0459 81.1767 99.2602 80.7246 99.1836 80.1918C99.107 79.6591 98.7689 79.2477 98.4276 79.273C98.0863 79.2982 97.872 79.7503 97.9486 80.2831Z" fill="#263238"/>
<path d="M104.377 79.9035C104.454 80.4362 104.792 80.8476 105.133 80.8223C105.475 80.7971 105.689 80.345 105.612 79.8122C105.536 79.2794 105.198 78.8681 104.856 78.8933C104.515 78.9186 104.301 79.3715 104.377 79.9035Z" fill="#263238"/>
<path d="M104.71 78.934L105.91 78.4729C105.91 78.4729 105.411 79.5197 104.71 78.934Z" fill="#263238"/>
<path opacity="0.2" d="M102.714 80.9086C102.714 80.9086 103.928 83.1357 105.062 84.1703C104.467 84.8774 103.254 84.664 103.254 84.664L102.714 80.9086Z" fill="black"/>
<path d="M100.536 86.8539C100.814 86.8824 101.108 86.8889 101.422 86.8661C101.507 86.8596 101.565 86.7846 101.552 86.6983C101.54 86.6127 101.464 86.5476 101.376 86.5533C99.089 86.7235 97.7831 85.1684 97.7701 85.1529C97.7139 85.0837 97.6153 85.0699 97.5518 85.1228C97.4874 85.1749 97.4809 85.2735 97.5379 85.3427C97.5876 85.403 98.6385 86.6559 100.536 86.8539Z" fill="#263238"/>
<path d="M87.366 85.3035C88.0112 86.5946 89.0685 87.3897 90.042 87.6479C91.5067 88.0365 92.1421 86.3576 91.655 84.6803C91.2159 83.1708 89.9247 81.1489 88.4934 81.5138C87.0833 81.8731 86.6287 83.8282 87.366 85.3035Z" fill="#263238"/>
<path d="M96.1534 77.4205C96.2348 77.4222 96.3147 77.3904 96.3725 77.3268C97.2645 76.3281 98.396 76.5424 98.4099 76.5448C98.5777 76.5766 98.7341 76.469 98.7553 76.2988C98.7765 76.1293 98.6567 75.964 98.4865 75.9298C98.427 75.9184 97.0071 75.6487 95.9 76.8878C95.7901 77.0116 95.8063 77.2095 95.9367 77.3309C95.9986 77.3888 96.0768 77.4189 96.1534 77.4205Z" fill="#263238"/>
<path d="M105.823 76.8444C105.9 76.8501 105.978 76.8281 106.038 76.7752C106.162 76.666 106.166 76.4689 106.048 76.3361C104.861 75.0018 103.445 75.1427 103.385 75.1492C103.215 75.1679 103.104 75.3219 103.135 75.493C103.166 75.6641 103.328 75.7871 103.497 75.7691C103.552 75.7626 104.653 75.6697 105.597 76.7312C105.659 76.7996 105.741 76.8387 105.823 76.8444Z" fill="#263238"/>
<path d="M98.2812 79.3136L99.4812 78.8525C99.4812 78.8525 98.9818 79.8985 98.2812 79.3136Z" fill="#263238"/>
<path d="M96.4031 71.5258C96.4031 71.5258 94.5026 79.9629 88.2903 80.9087C82.0788 81.8544 83.5353 72.6948 91.8159 69.3206C100.097 65.9465 106.807 72.6565 107.184 74.4658C107.561 76.2751 105.91 77.4196 105.91 77.4196C105.91 77.4196 102.892 71.6904 96.4031 71.5258Z" fill="#263238"/>
<path opacity="0.7" d="M87.366 85.3035C88.0112 86.5946 89.0685 87.3897 90.042 87.6479C91.5067 88.0365 92.1421 86.3576 91.655 84.6803C91.2159 83.1708 89.9247 81.1489 88.4934 81.5138C87.0833 81.8731 86.6287 83.8282 87.366 85.3035Z" fill="white"/>
<path d="M91.5316 274.998L92.6232 274.996L92.9262 273.649L96.5391 275.281H105.695C105.695 275.281 107.15 273.817 102.791 272.651C102.593 272.597 102.386 272.522 102.173 272.415C99.8481 271.325 96.5399 267.643 96.5399 267.643H91.5161C91.5161 267.643 91.341 267.895 91.1047 268.367C90.5557 269.471 89.6075 271.791 91.5316 274.998Z" fill="#263238"/>
<path d="M91.104 268.366C91.104 268.374 91.104 268.382 91.104 268.382C91.7671 267.642 94.7861 270.89 96.9962 271.995C98.9708 272.978 101.189 273.413 102.172 272.414C99.8473 271.324 96.1913 266.564 96.1913 266.564H92.1516C92.1516 266.564 91.3411 267.893 91.104 268.366Z" fill="#263238"/>
<path opacity="0.7" d="M91.104 268.366C91.104 268.374 91.104 268.382 91.104 268.382C91.7671 267.642 94.7861 270.89 96.9962 271.995C98.9708 272.978 101.189 273.413 102.172 272.414C99.8473 271.324 96.1913 266.564 96.1913 266.564H92.1516C92.1516 266.564 91.3411 267.893 91.104 268.366Z" fill="white"/>
<path d="M129.67 274.998L130.761 274.996L131.064 273.649L134.677 275.281H143.833C143.833 275.281 145.289 273.817 140.929 272.651C140.731 272.597 140.525 272.522 140.311 272.415C137.986 271.325 134.678 267.643 134.678 267.643H129.654C129.654 267.643 129.479 267.895 129.243 268.367C128.694 269.471 127.746 271.791 129.67 274.998Z" fill="#263238"/>
<path d="M129.243 268.366C129.243 268.374 129.243 268.382 129.243 268.382C129.906 267.642 132.925 270.89 135.135 271.995C137.11 272.978 139.328 273.413 140.311 272.414C137.987 271.324 134.33 266.564 134.33 266.564H130.291C130.291 266.564 129.479 267.893 129.243 268.366Z" fill="#263238"/>
<path opacity="0.7" d="M129.243 268.366C129.243 268.374 129.243 268.382 129.243 268.382C129.906 267.642 132.925 270.89 135.135 271.995C137.11 272.978 139.328 273.413 140.311 272.414C137.987 271.324 134.33 266.564 134.33 266.564H130.291C130.291 266.564 129.479 267.893 129.243 268.366Z" fill="white"/>
<path d="M112.98 139.966H86.972L86.2706 143.315C86.2706 143.315 76.7184 156.542 81.5597 189.513C81.5597 189.513 102.485 191.926 122.187 187.704C122.187 187.704 117.764 153.828 113.14 142.771L112.98 139.966Z" fill="#263238"/>
<path d="M94.7262 142.846H86L86.5279 140.358H94.7262V142.846Z" fill="#263238"/>
<path d="M110.577 140.358H113.191L113.416 142.846H110.577V140.358Z" fill="#263238"/>
<path d="M109.711 140.358H95.5747V142.846H109.711V140.358Z" fill="#263238"/>
<path opacity="0.6" d="M94.7262 142.846H86L86.5279 140.358H94.7262V142.846Z" fill="white"/>
<path opacity="0.6" d="M110.577 140.358H113.191L113.416 142.846H110.577V140.358Z" fill="white"/>
<path opacity="0.6" d="M109.711 140.358H95.5747V142.846H109.711V140.358Z" fill="white"/>
<path d="M101.886 143.035H105.748C106 143.035 106.205 142.831 106.205 142.579V140.627C106.205 140.374 106 140.171 105.748 140.171H101.886C101.634 140.171 101.43 140.375 101.43 140.627V142.579C101.429 142.831 101.634 143.035 101.886 143.035Z" fill="white"/>
<path d="M84.3983 102.116C81.2889 102.276 75.6583 107.63 70.9229 113.719C74.5039 118.136 78.9787 121.937 78.9787 121.937L87.911 115.596C87.911 115.596 89.0376 105.61 84.3983 102.116Z" fill="#263238"/>
<path opacity="0.8" d="M84.3983 102.116C81.2889 102.276 75.6583 107.63 70.9229 113.719C74.5039 118.136 78.9787 121.937 78.9787 121.937L87.911 115.596C87.911 115.596 89.0376 105.61 84.3983 102.116Z" fill="white"/>
<path opacity="0.6" d="M101.7 112.464C101.7 112.744 101.927 112.971 102.206 112.971C102.487 112.971 102.714 112.743 102.714 112.464C102.714 112.184 102.487 111.957 102.206 111.957C101.927 111.956 101.7 112.184 101.7 112.464Z" fill="white"/>
<path opacity="0.6" d="M103.222 120.434C103.501 120.434 103.728 120.207 103.728 119.927C103.728 119.648 103.501 119.421 103.222 119.421C102.942 119.421 102.715 119.648 102.715 119.927C102.715 120.207 102.942 120.434 103.222 120.434Z" fill="white"/>
<path opacity="0.6" d="M103.817 128.22C104.097 128.22 104.324 127.993 104.324 127.713C104.324 127.434 104.097 127.207 103.817 127.207C103.537 127.207 103.311 127.434 103.311 127.713C103.311 127.993 103.537 128.22 103.817 128.22Z" fill="white"/>
<path opacity="0.6" d="M103.817 136.493C104.097 136.493 104.324 136.266 104.324 135.986C104.324 135.706 104.097 135.479 103.817 135.479C103.537 135.479 103.311 135.706 103.311 135.986C103.311 136.266 103.537 136.493 103.817 136.493Z" fill="white"/>
<path d="M90.0397 145.011L89.7032 143.049C89.577 142.311 89.1012 141.679 88.4267 141.354L85.2757 139.834C84.0155 139.227 82.5394 139.266 81.3151 139.942L80.5566 140.36C80.8931 143.652 83.6815 146.962 83.6815 146.962L84.3715 147.994C84.9866 148.913 86.1515 149.172 87.0476 148.59L89.1102 147.248C89.8205 146.785 90.1912 145.895 90.0397 145.011Z" fill="#263238"/>
<path opacity="0.7" d="M90.0397 145.011L89.7032 143.049C89.577 142.311 89.1012 141.679 88.4267 141.354L85.2757 139.834C84.0155 139.227 82.5394 139.266 81.3151 139.942L80.5566 140.36C80.8931 143.652 83.6815 146.962 83.6815 146.962L84.3715 147.994C84.9866 148.913 86.1515 149.172 87.0476 148.59L89.1102 147.248C89.8205 146.785 90.1912 145.895 90.0397 145.011Z" fill="white"/>
<g opacity="0.7">
<path d="M123.055 158.873L126.117 164.221L119.301 164.727C119.301 164.727 116.857 159.79 119.453 158.637L123.055 158.873Z" fill="white"/>
<path d="M125.952 170.323L119.944 168.768L119.301 164.727L126.118 164.222L125.952 170.323Z" fill="white"/>
</g>
</svg>
